  0
SECTION
  2
HEADER
  9
$ACADVER
  1
AC1014
  9
$ACADMAINTVER
 70
     9
  9
$DWGCODEPAGE
  3
ANSI_1252
  9
$INSBASE
 10
0.0
 20
0.0
 30
0.0
  9
$EXTMIN
 10
1.000000E+20
 20
1.000000E+20
 30
1.000000E+20
  9
$EXTMAX
 10
-1.000000E+20
 20
-1.000000E+20
 30
-1.000000E+20
  9
$LIMMIN
 10
0.0
 20
0.0
  9
$LIMMAX
 10
12.0
 20
9.0
  9
$ORTHOMODE
 70
     0
  9
$REGENMODE
 70
     1
  9
$FILLMODE
 70
     1
  9
$QTEXTMODE
 70
     0
  9
$MIRRTEXT
 70
     1
  9
$DRAGMODE
 70
     2
  9
$LTSCALE
 40
1.0
  9
$OSMODE
 70
    37
  9
$ATTMODE
 70
     1
  9
$TEXTSIZE
 40
2.5
  9
$TRACEWID
 40
0.05
  9
$TEXTSTYLE
  7
STANDARD
  9
$CLAYER
  8
0
  9
$CELTYPE
  6
BYBLOCK
  9
$CECOLOR
 62
   256
  9
$CELTSCALE
 40
1.0
  9
$DELOBJ
 70
     1
  9
$DISPSILH
 70
     0
  9
$DIMSCALE
 40
1.0
  9
$DIMASZ
 40
0.18
  9
$DIMEXO
 40
0.0625
  9
$DIMDLI
 40
0.38
  9
$DIMRND
 40
0.0
  9
$DIMDLE
 40
0.0
  9
$DIMEXE
 40
0.18
  9
$DIMTP
 40
0.0
  9
$DIMTM
 40
0.0
  9
$DIMTXT
 40
0.18
  9
$DIMCEN
 40
0.09
  9
$DIMTSZ
 40
0.0
  9
$DIMTOL
 70
     0
  9
$DIMLIM
 70
     0
  9
$DIMTIH
 70
     1
  9
$DIMTOH
 70
     1
  9
$DIMSE1
 70
     0
  9
$DIMSE2
 70
     0
  9
$DIMTAD
 70
     0
  9
$DIMZIN
 70
     0
  9
$DIMBLK
  1

  9
$DIMASO
 70
     1
  9
$DIMSHO
 70
     1
  9
$DIMPOST
  1

  9
$DIMAPOST
  1

  9
$DIMALT
 70
     0
  9
$DIMALTD
 70
     2
  9
$DIMALTF
 40
25.4
  9
$DIMLFAC
 40
1.0
  9
$DIMTOFL
 70
     0
  9
$DIMTVP
 40
0.0
  9
$DIMTIX
 70
     0
  9
$DIMSOXD
 70
     0
  9
$DIMSAH
 70
     0
  9
$DIMBLK1
  1

  9
$DIMBLK2
  1

  9
$DIMSTYLE
  2
ISO-25
  9
$DIMCLRD
 70
     0
  9
$DIMCLRE
 70
     0
  9
$DIMCLRT
 70
     0
  9
$DIMTFAC
 40
1.0
  9
$DIMGAP
 40
0.09
  9
$DIMJUST
 70
     0
  9
$DIMSD1
 70
     0
  9
$DIMSD2
 70
     0
  9
$DIMTOLJ
 70
     1
  9
$DIMTZIN
 70
     0
  9
$DIMALTZ
 70
     0
  9
$DIMALTTZ
 70
     0
  9
$DIMFIT
 70
     5
  9
$DIMUPT
 70
     0
  9
$DIMUNIT
 70
     2
  9
$DIMDEC
 70
     4
  9
$DIMTDEC
 70
     4
  9
$DIMALTU
 70
     2
  9
$DIMALTTD
 70
     2
  9
$DIMTXSTY
  7
STANDARD
  9
$DIMAUNIT
 70
     0
  9
$LUNITS
 70
     2
  9
$LUPREC
 70
     4
  9
$SKETCHINC
 40
0.1
  9
$FILLETRAD
 40
0.5
  9
$AUNITS
 70
     0
  9
$AUPREC
 70
     0
  9
$MENU
  1
.
  9
$ELEVATION
 40
0.0
  9
$PELEVATION
 40
0.0
  9
$THICKNESS
 40
0.0
  9
$LIMCHECK
 70
     0
  9
$CHAMFERA
 40
0.0
  9
$CHAMFERB
 40
0.0
  9
$CHAMFERC
 40
0.0
  9
$CHAMFERD
 40
0.0
  9
$SKPOLY
 70
     0
  9
$TDCREATE
 40
2447893.041666667
  9
$TDUPDATE
 40
2460917.38605132
  9
$TDINDWG
 40
0.0
  9
$TDUSRTIMER
 40
0.0
  9
$USRTIMER
 70
     1
  9
$ANGBASE
 50
0.0
  9
$ANGDIR
 70
     0
  9
$PDMODE
 70
     0
  9
$PDSIZE
 40
0.0
  9
$PLINEWID
 40
0.0
  9
$COORDS
 70
     1
  9
$SPLFRAME
 70
     0
  9
$SPLINETYPE
 70
     6
  9
$SPLINESEGS
 70
     8
  9
$ATTDIA
 70
     0
  9
$ATTREQ
 70
     1
  9
$HANDLING
 70
     1
  9
$HANDSEED
  5
1012E
  9
$SURFTAB1
 70
     6
  9
$SURFTAB2
 70
     6
  9
$SURFTYPE
 70
     6
  9
$SURFU
 70
     6
  9
$SURFV
 70
     6
  9
$UCSNAME
  2

  9
$UCSORG
 10
0.0
 20
0.0
 30
0.0
  9
$UCSXDIR
 10
1.0
 20
0.0
 30
0.0
  9
$UCSYDIR
 10
0.0
 20
1.0
 30
0.0
  9
$PUCSNAME
  2

  9
$PUCSORG
 10
0.0
 20
0.0
 30
0.0
  9
$PUCSXDIR
 10
1.0
 20
0.0
 30
0.0
  9
$PUCSYDIR
 10
0.0
 20
1.0
 30
0.0
  9
$USERI1
 70
     0
  9
$USERI2
 70
     0
  9
$USERI3
 70
     0
  9
$USERI4
 70
     0
  9
$USERI5
 70
     0
  9
$USERR1
 40
0.0
  9
$USERR2
 40
0.0
  9
$USERR3
 40
0.0
  9
$USERR4
 40
0.0
  9
$USERR5
 40
0.0
  9
$WORLDVIEW
 70
     1
  9
$SHADEDGE
 70
     3
  9
$SHADEDIF
 70
    70
  9
$TILEMODE
 70
     1
  9
$MAXACTVP
 70
    64
  9
$PINSBASE
 10
0.0
 20
0.0
 30
0.0
  9
$PLIMCHECK
 70
     0
  9
$PEXTMIN
 10
1.000000E+20
 20
1.000000E+20
 30
1.000000E+20
  9
$PEXTMAX
 10
-1.000000E+20
 20
-1.000000E+20
 30
-1.000000E+20
  9
$PLIMMIN
 10
0.0
 20
0.0
  9
$PLIMMAX
 10
12.0
 20
9.0
  9
$UNITMODE
 70
     0
  9
$VISRETAIN
 70
     1
  9
$PLINEGEN
 70
     0
  9
$PSLTSCALE
 70
     0
  9
$TREEDEPTH
 70
  3020
  9
$PICKSTYLE
 70
     1
  9
$CMLSTYLE
  2

  9
$CMLJUST
 70
     0
  9
$CMLSCALE
 40
1.0
  9
$PROXYGRAPHICS
 70
     1
  9
$MEASUREMENT
 70
     1
  0
ENDSEC
  0
SECTION
  2
CLASSES
  0
CLASS
  1
SCALE
  2
AcDbScale
  3
ObjectDBX Classes
 90
     1153
280
     0
281
     0
  0
CLASS
  1
VISUALSTYLE
  2
AcDbVisualStyle
  3
ObjectDBX Classes
 90
     4095
280
     0
281
     0
  0
CLASS
  1
MATERIAL
  2
AcDbMaterial
  3
ObjectDBX Classes
 90
     1153
280
     0
281
     0
  0
CLASS
  1
SUN
  2
AcDbSun
  3
SCENEOE
 90
     1153
280
     0
281
     0
  0
CLASS
  1
TABLESTYLE
  2
AcDbTableStyle
  3
ObjectDBX Classes
 90
     4095
280
     0
281
     0
  0
CLASS
  1
SORTENTSTABLE
  2
AcDbSortentsTable
  3
ObjectDBX Classes
 90
        0
280
     0
281
     0
  0
CLASS
  1
DICTIONARYVAR
  2
AcDbDictionaryVar
  3
ObjectDBX Classes
 90
        0
280
     0
281
     0
  0
CLASS
  1
XRECORD
  2
AcDbXrecord
  3
ObjectDBX Classes
 90
        0
280
     0
281
     0
  0
CLASS
  1
LWPOLYLINE
  2
AcDbPolyline
  3
ObjectDBX Classes
 90
        0
280
     0
281
     1
  0
CLASS
  1
HATCH
  2
AcDbHatch
  3
ObjectDBX Classes
 90
        0
280
     0
281
     1
  0
CLASS
  1
ACDBPLACEHOLDER
  2
AcDbPlaceHolder
  3
ObjectDBX Classes
 90
        0
280
     0
281
     0
  0
CLASS
  1
LAYOUT
  2
AcDbLayout
  3
ObjectDBX Classes
 90
        0
280
     0
281
     0
  0
ENDSEC
  0
SECTION
  2
TABLES
  0
TABLE
  2
VPORT
  5
8
102
{ACAD_XDICTIONARY
360
10126
102
}
330
0
100
AcDbSymbolTable
 70
     1
  0
VPORT
  5
2E
330
8
100
AcDbSymbolTableRecord
100
AcDbViewportTableRecord
  2
*ACTIVE
 70
     0
 10
0.0
 20
0.0
 11
1.0
 21
1.0
 12
570.792993
 22
45.994777
 13
0.0
 23
0.0
 14
10.0
 24
10.0
 15
10.0
 25
10.0
 16
0.0
 26
0.0
 36
1.0
 17
0.0
 27
0.0
 37
0.0
 40
151.555556
 41
2.170163
 42
50.0
 43
0.0
 44
0.0
 50
0.0
 51
0.0
 71
    16
 72
   100
 73
     1
 74
     3
 75
     0
 76
     0
 77
     0
 78
     0
  0
ENDTAB
  0
TABLE
  2
LTYPE
  5
5
330
0
100
AcDbSymbolTable
 70
     1
  0
LTYPE
  5
14
330
5
100
AcDbSymbolTableRecord
100
AcDbLinetypeTableRecord
  2
BYBLOCK
 70
     0
  3

 72
    65
 73
     0
 40
0.0
  0
LTYPE
  5
15
330
5
100
AcDbSymbolTableRecord
100
AcDbLinetypeTableRecord
  2
BYLAYER
 70
     0
  3

 72
    65
 73
     0
 40
0.0
  0
LTYPE
  5
16
330
5
100
AcDbSymbolTableRecord
100
AcDbLinetypeTableRecord
  2
CONTINUOUS
 70
     0
  3
Solid line
 72
    65
 73
     0
 40
0.0
  0
ENDTAB
  0
TABLE
  2
LAYER
  5
2
330
0
100
AcDbSymbolTable
 70
     2
  0
LAYER
  5
50
330
2
100
AcDbSymbolTableRecord
100
AcDbLayerTableRecord
  2
0
 70
     0
 62
     7
  6
CONTINUOUS
  0
LAYER
  5
51
330
2
100
AcDbSymbolTableRecord
100
AcDbLayerTableRecord
  2
IMAGE
 70
     0
 62
     7
  6
CONTINUOUS
  0
ENDTAB
  0
TABLE
  2
STYLE
  5
3
330
0
100
AcDbSymbolTable
 70
     1
  0
STYLE
  5
11
330
3
100
AcDbSymbolTableRecord
100
AcDbTextStyleTableRecord
  2
STANDARD
 70
     0
 40
0.0
 41
1.0
 50
0.0
 71
     0
 42
2.5
  3
txt
  4

  0
ENDTAB
  0
TABLE
  2
VIEW
  5
6
330
0
100
AcDbSymbolTable
 70
     0
  0
ENDTAB
  0
TABLE
  2
UCS
  5
7
330
0
100
AcDbSymbolTable
 70
     0
  0
ENDTAB
  0
TABLE
  2
APPID
  5
9
330
0
100
AcDbSymbolTable
 70
     6
  0
APPID
  5
12
330
9
100
AcDbSymbolTableRecord
100
AcDbRegAppTableRecord
  2
ACAD
 70
     0
  0
APPID
  5
10041
330
9
100
AcDbSymbolTableRecord
100
AcDbRegAppTableRecord
  2
MCS_DIM1
 70
     0
  0
APPID
  5
10042
330
9
100
AcDbSymbolTableRecord
100
AcDbRegAppTableRecord
  2
MCSXDATA5
 70
     0
  0
APPID
  5
10045
330
9
100
AcDbSymbolTableRecord
100
AcDbRegAppTableRecord
  2
MCS_DOCUMENT_ID
 70
     0
  0
APPID
  5
10051
330
9
100
AcDbSymbolTableRecord
100
AcDbRegAppTableRecord
  2
MCS_PARAMS_DATA
 70
     0
  0
APPID
  5
10053
330
9
100
AcDbSymbolTableRecord
100
AcDbRegAppTableRecord
  2
MC_VERSION_DATA
 70
     0
  0
ENDTAB
  0
TABLE
  2
DIMSTYLE
  5
A
330
0
100
AcDbSymbolTable
 70
     1
  0
DIMSTYLE
105
27
330
A
100
AcDbSymbolTableRecord
100
AcDbDimStyleTableRecord
  2
ISO-25
 70
     0
  3

  4

  5

  6

  7

 40
1.0
 41
2.5
 42
0.625
 43
3.75
 44
1.25
 45
0.0
 46
0.0
 47
0.0
 48
0.0
140
2.5
141
2.5
142
0.0
143
0.03937
144
1.0
145
0.0
146
1.0
147
0.625
 71
     0
 72
     0
 73
     0
 74
     0
 75
     0
 76
     0
 77
     1
 78
     8
170
     0
171
     3
172
     1
173
     0
174
     0
175
     0
176
     0
177
     0
178
     0
270
     2
271
     2
272
     2
273
     2
274
     3
340
11
275
     0
280
     0
281
     0
282
     0
283
     0
284
     8
285
     0
286
     0
287
     3
288
     0
  0
ENDTAB
  0
TABLE
  2
BLOCK_RECORD
  5
1
330
0
100
AcDbSymbolTable
 70
     0
  0
BLOCK_RECORD
  5
1F
102
{ACAD_XDICTIONARY
360
1004D
102
}
330
1
100
AcDbSymbolTableRecord
100
AcDbBlockTableRecord
  2
*MODEL_SPACE
  0
BLOCK_RECORD
  5
1B
330
1
100
AcDbSymbolTableRecord
100
AcDbBlockTableRecord
  2
*PAPER_SPACE
  0
ENDTAB
  0
ENDSEC
  0
SECTION
  2
BLOCKS
  0
BLOCK
  5
20
330
1F
100
AcDbEntity
  8
0
100
AcDbBlockBegin
  2
*MODEL_SPACE
 70
     0
 10
0.0
 20
0.0
 30
0.0
  3
*MODEL_SPACE
  1

  0
ENDBLK
  5
21
330
1F
100
AcDbEntity
  8
0
100
AcDbBlockEnd
  0
BLOCK
  5
1C
330
1B
100
AcDbEntity
 67
     1
  8
0
100
AcDbBlockBegin
  2
*PAPER_SPACE
 70
     0
 10
0.0
 20
0.0
 30
0.0
  3
*PAPER_SPACE
  1

  0
ENDBLK
  5
1D
330
1B
100
AcDbEntity
 67
     1
  8
0
100
AcDbBlockEnd
  0
ENDSEC
  0
SECTION
  2
ENTITIES
  0
SPLINE
  5
100
330
1F
100
AcDbEntity
  8
IMAGE
 62
     7
100
AcDbSpline
210
0.0
220
0.0
230
1.0
 70
  1064
 71
     3
 72
    10
 73
     6
 74
     4
 42
0.000000001
 43
0.0000001
 44
0.0000000001
 40
0.0
 40
0.0
 40
0.0
 40
0.0
 40
0.7758537060454357
 40
1.454599324719829
 40
2.117652030151719
 40
2.117652030151719
 40
2.117652030151719
 40
2.117652030151719
 10
580.8498760887501
 20
2.087761192398415
 30
0.0
 10
580.5970749994244
 20
2.142576199322058
 30
0.0
 10
580.1231141341783
 20
2.245345408819106
 30
0.0
 10
579.4493088903926
 20
2.462625095938254
 30
0.0
 10
579.044849030318
 20
2.654436200671234
 30
0.0
 10
578.8449842670053
 20
2.749220096015412
 30
0.0
 11
580.8498760887501
 21
2.087761192398415
 31
0.0
 11
580.0946389781132
 21
2.265429084548978
 31
0.0
 11
579.4500679480298
 21
2.47808797114183
 31
0.0
 11
578.8449842670053
 21
2.749220096015412
 31
0.0
  0
LWPOLYLINE
  5
101
330
1F
100
AcDbEntity
  8
IMAGE
 62
     7
100
AcDbPolyline
 90
        3
 70
     0
 43
0.0
 10
578.844984
 20
2.74922
 10
578.357308
 20
2.99599
 10
577.969432
 20
3.411754
  0
SPLINE
  5
102
330
1F
100
AcDbEntity
  8
IMAGE
 62
     7
100
AcDbSpline
210
0.0
220
0.0
230
1.0
 70
  1064
 71
     3
 72
    13
 73
     9
 74
     7
 42
0.000000001
 43
0.0000001
 44
0.0000000001
 40
0.0
 40
0.0
 40
0.0
 40
0.0
 40
0.8899212029675464
 40
1.900137032623883
 40
3.183217674332801
 40
4.084311181193781
 40
5.148974943942553
 40
6.147281852197166
 40
6.147281852197166
 40
6.147281852197166
 40
6.147281852197166
 10
577.9694322058045
 20
3.41175439951882
 30
0.0
 10
577.7774338859712
 20
3.638790594411737
 30
0.0
 10
577.3674839752375
 20
4.123552481445662
 30
0.0
 10
576.864752152311
 20
5.065559787614582
 30
0.0
 10
576.4682967139127
 20
6.053196905940521
 30
0.0
 10
576.0608873402932
 20
7.056768137121983
 30
0.0
 10
575.6610152146443
 20
7.960445492071504
 30
0.0
 10
575.3662185240632
 20
8.581724973873474
 30
0.0
 10
575.2235613467828
 20
8.88237277626714
 30
0.0
 11
577.9694322058045
 21
3.41175439951882
 31
0.0
 11
577.4175342538873
 21
4.109872153311671
 31
0.0
 11
576.9228973264438
 21
4.990707173333874
 31
0.0
 11
576.4199147498394
 21
6.171090357202818
 31
0.0
 11
576.077473146687
 21
7.00457896332614
 31
0.0
 11
575.6476717598705
 21
7.978632193699604
 31
0.0
 11
575.2235613467828
 21
8.88237277626714
 31
0.0
  0
LWPOLYLINE
  5
103
330
1F
100
AcDbEntity
  8
IMAGE
 62
     7
100
AcDbPolyline
 90
        3
 70
     0
 43
0.0
 10
575.223561
 20
8.882373
 10
574.514018
 20
10.333808
 10
573.888908
 20
11.042574
  0
SPLINE
  5
104
330
1F
100
AcDbEntity
  8
IMAGE
 62
     7
100
AcDbSpline
210
0.0
220
0.0
230
1.0
 70
  1064
 71
     3
 72
    10
 73
     6
 74
     4
 42
0.000000001
 43
0.0000001
 44
0.0000000001
 40
0.0
 40
0.0
 40
0.0
 40
0.0
 40
0.5589301202837536
 40
1.115833553935258
 40
1.550199756179137
 40
1.550199756179137
 40
1.550199756179137
 40
1.550199756179137
 10
573.8889075746954
 20
11.04257448665658
 30
0.0
 10
573.7662359973259
 20
11.18279949602058
 30
0.0
 10
573.5213376510468
 20
11.4627410573553
 30
0.0
 10
573.1847706863007
 20
11.85486099326603
 30
0.0
 10
572.9734260002849
 20
12.10885925469218
 30
0.0
 10
572.8808164969722
 20
12.22015920396639
 30
0.0
 11
573.8889075746954
 21
11.04257448665658
 31
0.0
 11
573.5215546137792
 21
11.46382818867776
 31
0.0
 11
573.1593884475761
 21
11.88688504356913
 31
0.0
 11
572.8808164969722
 21
12.22015920396639
 31
0.0
  0
LWPOLYLINE
  5
105
330
1F
100
AcDbEntity
  8
IMAGE
 62
     7
100
AcDbPolyline
 90
        3
 70
     0
 43
0.0
 10
572.880816
 20
12.220159
 10
572.497836
 20
12.688978
 10
571.471973
 20
12.502831
  0
SPLINE
  5
106
330
1F
100
AcDbEntity
  8
IMAGE
 62
     7
100
AcDbSpline
210
0.0
220
0.0
230
1.0
 70
  1064
 71
     3
 72
    10
 73
     6
 74
     4
 42
0.000000001
 43
0.0000001
 44
0.0000000001
 40
0.0
 40
0.0
 40
0.0
 40
0.0
 40
0.5579154244532594
 40
1.018548942730505
 40
1.282728549146173
 40
1.282728549146173
 40
1.282728549146173
 40
1.282728549146173
 10
571.471973480422
 20
12.50283102183829
 30
0.0
 10
571.2893304010692
 20
12.46796281400071
 30
0.0
 10
570.9558911247595
 20
12.40430625483194
 30
0.0
 10
570.5366803853877
 20
12.31841912591636
 30
0.0
 10
570.3043610060761
 20
12.25186510676179
 30
0.0
 10
570.2196853288589
 20
12.22760752368741
 30
0.0
 11
571.471973480422
 21
12.50283102183829
 31
0.0
 11
570.9242139220875
 21
12.39686363489291
 31
0.0
 11
570.4743178769139
 21
12.2979859999208
 31
0.0
 11
570.2196853288589
 21
12.22760752368741
 31
0.0
  0
LWPOLYLINE
  5
107
330
1F
100
AcDbEntity
  8
IMAGE
 62
     7
100
AcDbPolyline
 90
        3
 70
     0
 43
0.0
 10
570.219685
 20
12.227608
 10
569.99326
 20
12.138531
 10
569.544453
 20
11.275868
  0
SPLINE
  5
108
330
1F
100
AcDbEntity
  8
IMAGE
 62
     7
100
AcDbSpline
210
0.0
220
0.0
230
1.0
 70
  1064
 71
     3
 72
    13
 73
     9
 74
     7
 42
0.000000001
 43
0.0000001
 44
0.0000000001
 40
0.0
 40
0.0
 40
0.0
 40
0.0
 40
0.6282437225908186
 40
1.341642660653464
 40
1.986878127001213
 40
2.54074115911386
 40
3.013530843217057
 40
3.302916479751001
 40
3.302916479751001
 40
3.302916479751001
 40
3.302916479751001
 10
569.544453116062
 20
11.27586800672575
 30
0.0
 10
569.4523023277916
 20
11.08778682022624
 30
0.0
 10
569.2555101843751
 20
10.68613100672532
 30
0.0
 10
568.9964502705899
 20
10.07624954080953
 30
0.0
 10
568.769879316403
 20
9.480227447014167
 30
0.0
 10
568.5904971432666
 20
8.952551415011978
 30
0.0
 10
568.4441017364485
 20
8.539006871192548
 30
0.0
 10
568.3561490646771
 20
8.300656456198599
 30
0.0
 10
568.3227548583623
 20
8.2101586603588
 30
0.0
 11
569.544453116062
 21
11.27586800672575
 31
0.0
 11
569.2727943637688
 21
10.7093949735836
 31
0.0
 11
568.9920267165843
 21
10.05356910254509
 31
0.0
 11
568.7629346883139
 21
9.450372907583672
 31
0.0
 11
568.5806193698559
 21
8.927376365533368
 31
0.0
 11
568.4224806789712
 21
8.481818019365692
 31
0.0
 11
568.3227548583623
 21
8.2101586603588
 31
0.0
  0
LWPOLYLINE
  5
109
330
1F
100
AcDbEntity
  8
IMAGE
 62
     7
100
AcDbPolyline
 90
        5
 70
     0
 43
0.0
 10
568.322755
 20
8.210159
 10
568.215287
 20
7.932792
 10
567.905134
 20
7.749583
 10
567.594983
 20
7.566366
 10
567.335354
 20
7.566366
  0
SPLINE
  5
10A
330
1F
100
AcDbEntity
  8
IMAGE
 62
     7
100
AcDbSpline
210
0.0
220
0.0
230
1.0
 70
  1064
 71
     3
 72
    19
 73
    15
 74
    13
 42
0.000000001
 43
0.0000001
 44
0.0000000001
 40
0.0
 40
0.0
 40
0.0
 40
0.0
 40
0.1454721963469916
 40
0.2801561284298559
 40
0.3798987863846542
 40
0.5090218735325187
 40
0.7172529585586858
 40
0.9612034562492222
 40
1.646344193130843
 40
2.476392817155392
 40
3.217902843398009
 40
3.677344932960026
 40
4.45369499860131
 40
5.379422781185452
 40
5.379422781185452
 40
5.379422781185452
 40
5.379422781185452
 10
567.3353542317682
 20
7.566365740489369
 30
0.0
 10
567.2870093974033
 20
7.569363780814649
 30
0.0
 10
567.1939049969378
 20
7.5751375258429
 30
0.0
 10
567.0684048145142
 20
7.603400752130715
 30
0.0
 10
566.9640254669603
 20
7.666403771208626
 30
0.0
 10
566.8416441748099
 20
7.745514179818791
 30
0.0
 10
566.6607463490067
 20
7.818024537515023
 30
0.0
 10
566.3022462609143
 20
7.939786498464986
 30
0.0
 10
565.7596274896082
 20
8.166577183633274
 30
0.0
 10
565.099307043103
 20
8.525945027117883
 30
0.0
 10
564.5147438264556
 20
8.87405514655573
 30
0.0
 10
564.0244933055797
 20
9.316810690274638
 30
0.0
 10
563.4982792827072
 20
9.808269377113724
 30
0.0
 10
563.0931664636928
 20
10.20564945395055
 30
0.0
 10
562.8728333032361
 20
10.42177692294782
 30
0.0
 11
567.3353542317682
 21
7.566365740489369
 31
0.0
 11
567.1904691998503
 21
7.579422824244202
 31
0.0
 11
567.0602077862468
 21
7.613653303167386
 31
0.0
 11
566.9727706465965
 21
7.661646473782156
 31
0.0
 11
566.8622510873817
 21
7.728416217420697
 31
0.0
 11
566.6714763609596
 21
7.811873922455947
 31
0.0
 11
566.4417484968185
 21
7.893952870796208
 31
0.0
 11
565.8092365065897
 21
8.157289939116557
 31
0.0
 11
565.0754976862631
 21
8.54537248419011
 31
0.0
 11
564.4518179295161
 21
8.946446891304653
 31
0.0
 11
564.1038346041844
 21
9.246437956091919
 31
0.0
 11
563.5365695064152
 21
9.776466005608262
 31
0.0
 11
562.8728333032361
 21
10.42177692294782
 31
0.0
  0
LWPOLYLINE
  5
10B
330
1F
100
AcDbEntity
  8
IMAGE
 62
     7
100
AcDbPolyline
 90
        3
 70
     0
 43
0.0
 10
562.872833
 20
10.421777
 10
561.652767
 20
11.630335
 10
560.964793
 20
12.551502
  0
SPLINE
  5
10C
330
1F
100
AcDbEntity
  8
IMAGE
 62
     7
100
AcDbSpline
210
0.0
220
0.0
230
1.0
 70
  1064
 71
     3
 72
    25
 73
    21
 74
    19
 42
0.000000001
 43
0.0000001
 44
0.0000000001
 40
0.0
 40
0.0
 40
0.0
 40
0.0
 40
0.5854467993300887
 40
1.015077157906208
 40
1.195879044833618
 40
1.372043320534457
 40
1.794957678824151
 40
2.373329067278056
 40
2.976015739999982
 40
3.46317819822716
 40
3.730914722632698
 40
4.00211659820865
 40
4.495750690523491
 40
5.105862968973224
 40
6.566536109463065
 40
8.261454918238023
 40
9.839978051615976
 40
10.53204157465588
 40
10.87759574781367
 40
11.14658475162613
 40
11.14658475162613
 40
11.14658475162613
 40
11.14658475162613
 10
560.9647926929822
 20
12.55150249827705
 30
0.0
 10
560.8497751920135
 20
12.70997370219353
 30
0.0
 10
560.6503520537773
 20
12.98473905997768
 30
0.0
 10
560.3967049374721
 20
13.28593133721875
 30
0.0
 10
560.2647609498597
 20
13.52607378315658
 30
0.0
 10
560.00724180569
 20
13.61166910386988
 30
0.0
 10
559.6580005241384
 20
13.77685649621081
 30
0.0
 10
559.1560173685378
 20
13.96977361821306
 30
0.0
 10
558.645362041375
 20
14.18721586782626
 30
0.0
 10
558.2307259268559
 20
14.37060807218306
 30
0.0
 10
557.9354514815299
 20
14.54403511106509
 30
0.0
 10
557.6513854486841
 20
14.73879567503839
 30
0.0
 10
557.2449469077452
 20
14.95244066250237
 30
0.0
 10
556.4834615460617
 20
15.33946779315888
 30
0.0
 10
555.3852401291222
 20
15.95377524421949
 30
0.0
 10
554.066763739901
 20
16.8047525815252
 30
0.0
 10
552.9691294817554
 20
17.59136103868147
 30
0.0
 10
552.3233236848002
 20
18.10943242232241
 30
0.0
 10
551.8774722463697
 20
18.34581802139522
 30
0.0
 10
551.712773788529
 20
18.19523828514729
 30
0.0
 10
551.6406843475194
 20
18.12932868796103
 30
0.0
 11
560.9647926929822
 21
12.55150249827705
 31
0.0
 11
560.6144592624545
 21
13.02055946955082
 31
0.0
 11
560.3573419187804
 21
13.36475841869542
 31
0.0
 11
560.2491054229068
 21
13.50958308260843
 31
0.0
 11
560.0904598227951
 21
13.58616914921576
 31
0.0
 11
559.7011890291024
 21
13.75147130777824
 31
0.0
 11
559.1655685968198
 21
13.96970103880383
 31
0.0
 11
558.610227848482
 21
14.20385457542531
 31
0.0
 11
558.1692598975418
 21
14.41091622554308
 31
0.0
 11
557.9381323450859
 21
14.54605652669904
 31
0.0
 11
557.7106065480182
 21
14.69364537785181
 31
0.0
 11
557.2790823978858
 21
14.93335671456327
 31
0.0
 11
556.7369828708856
 21
15.21329437751945
 31
0.0
 11
555.4624340933523
 21
15.92680081549787
 31
0.0
 11
554.0358474337115
 21
16.8420058585752
 31
0.0
 11
552.7566187706922
 21
17.76683519976149
 31
0.0
 11
552.1942243698413
 21
18.17015202040505
 31
0.0
 11
551.8655742772772
 21
18.27690783169593
 31
0.0
 11
551.6406843475194
 21
18.12932868796103
 31
0.0
  0
LWPOLYLINE
  5
10D
330
1F
100
AcDbEntity
  8
IMAGE
 62
     7
100
AcDbPolyline
 90
        3
 70
     0
 43
0.0
 10
551.640684
 20
18.129329
 10
551.502984
 20
17.963416
 10
551.576034
 20
16.801772
  0
SPLINE
  5
10E
330
1F
100
AcDbEntity
  8
IMAGE
 62
     7
100
AcDbSpline
210
0.0
220
0.0
230
1.0
 70
  1064
 71
     3
 72
    10
 73
     6
 74
     4
 42
0.000000001
 43
0.0000001
 44
0.0000000001
 40
0.0
 40
0.0
 40
0.0
 40
0.0
 40
0.6348523948234585
 40
1.180481503501962
 40
1.519068728349732
 40
1.519068728349732
 40
1.519068728349732
 40
1.519068728349732
 10
551.5760338545456
 20
16.80177164505344
 30
0.0
 10
551.5907268954766
 20
16.59067712470963
 30
0.0
 10
551.6180479912
 20
16.19815568383866
 30
0.0
 10
551.6595132322649
 20
15.69333342826043
 30
0.0
 10
551.6978869324795
 20
15.40107282280052
 30
0.0
 10
551.7125811245796
 20
15.28915936499279
 30
0.0
 11
551.5760338545456
 21
16.80177164505344
 31
0.0
 11
551.6215307019825
 21
16.1685516200334
 31
0.0
 11
551.6705862281409
 21
15.62513218755917
 31
0.0
 11
551.7125811245796
 21
15.28915936499279
 31
0.0
  0
LWPOLYLINE
  5
10F
330
1F
100
AcDbEntity
  8
IMAGE
 62
     7
100
AcDbPolyline
 90
        5
 70
     0
 43
0.0
 10
551.712581
 20
15.289159
 10
551.77608
 20
14.9382
 10
551.584693
 20
14.864759
 10
551.393304
 20
14.791317
 10
550.896646
 20
14.924153
  0
SPLINE
  5
110
330
1F
100
AcDbEntity
  8
IMAGE
 62
     7
100
AcDbSpline
210
0.0
220
0.0
230
1.0
 70
  1064
 71
     3
 72
    13
 73
     9
 74
     7
 42
0.000000001
 43
0.0000001
 44
0.0000000001
 40
0.0
 40
0.0
 40
0.0
 40
0.0
 40
0.2860740072449626
 40
0.5434089272090061
 40
0.7192847295848377
 40
0.8727792699668184
 40
1.07047514325568
 40
1.27313423715648
 40
1.27313423715648
 40
1.27313423715648
 40
1.27313423715648
 10
550.8966462601848
 20
14.92415347570461
 30
0.0
 10
550.8054253718117
 20
14.9517560545655
 30
0.0
 10
550.6321476750112
 20
15.00418824828856
 30
0.0
 10
550.407687898502
 20
15.091922015455
 30
0.0
 10
550.2415219801247
 20
15.19576982814526
 30
0.0
 10
550.0969914314317
 20
15.29635129892381
 30
0.0
 10
549.9242980630844
 20
15.36584015682686
 30
0.0
 10
549.7954169007144
 20
15.40024541710085
 30
0.0
 10
549.7301774464116
 20
15.41766130910662
 30
0.0
 11
550.8966462601848
 21
14.92415347570461
 31
0.0
 11
550.6240094855406
 21
15.01079946079802
 31
0.0
 11
550.3866764662084
 21
15.11026955161728
 31
0.0
 11
550.2360285649979
 21
15.20103026846224
 31
0.0
 11
550.1065904617728
 21
15.28353088276643
 31
0.0
 11
549.9248584984578
 21
15.36135858879127
 31
0.0
 11
549.7301774464116
 21
15.41766130910662
 31
0.0
  0
LWPOLYLINE
  5
111
330
1F
100
AcDbEntity
  8
IMAGE
 62
     7
100
AcDbPolyline
 90
        3
 70
     0
 43
0.0
 10
549.730177
 20
15.417661
 10
549.388283
 20
15.490252
 10
549.31097
 20
15.365161
  0
SPLINE
  5
112
330
1F
100
AcDbEntity
  8
IMAGE
 62
     7
100
AcDbSpline
210
0.0
220
0.0
230
1.0
 70
  1064
 71
     3
 72
    16
 73
    12
 74
    10
 42
0.000000001
 43
0.0000001
 44
0.0000000001
 40
0.0
 40
0.0
 40
0.0
 40
0.0
 40
0.205890023227217
 40
0.6108258998134348
 40
1.128328373175188
 40
1.63505613556648
 40
2.011600329664008
 40
2.177292296681361
 40
2.269879660698839
 40
2.463886648381895
 40
2.720289348619628
 40
2.720289348619628
 40
2.720289348619628
 40
2.720289348619628
 10
549.3109701894211
 20
15.36516086303
 30
0.0
 10
549.2902797986308
 20
15.29969085530374
 30
0.0
 10
549.2288964135885
 20
15.1054571777639
 30
0.0
 10
549.1655021828605
 20
14.73290196596685
 30
0.0
 10
549.0835800107257
 20
14.26865776948301
 30
0.0
 10
549.0266142411917
 20
13.7883150509601
 30
0.0
 10
548.9314207113791
 20
13.48805638757948
 30
0.0
 10
548.9319759109857
 20
13.2154558049523
 30
0.0
 10
548.7578937755164
 20
13.22035831004725
 30
0.0
 10
548.5881424722985
 20
13.23892860835528
 30
0.0
 10
548.438761934349
 20
13.26820395694257
 30
0.0
 10
548.3537247463838
 20
13.28486940315629
 30
0.0
 11
549.3109701894211
 21
15.36516086303
 31
0.0
 11
549.2519739640024
 21
15.1679043116791
 31
0.0
 11
549.1716244528279
 21
14.77102017216145
 31
0.0
 11
549.0873170453718
 21
14.26043122693881
 31
0.0
 11
549.0067606448538
 21
13.76014761586039
 31
0.0
 11
548.9362441412725
 21
13.39026526587431
 31
0.0
 11
548.8910345727332
 21
13.2308603636706
 31
0.0
 11
548.7990913710485
 21
13.21995771997029
 31
0.0
 11
548.6060578498298
 21
13.23936830872399
 31
0.0
 11
548.3537247463838
 21
13.28486940315629
 31
0.0
  0
LWPOLYLINE
  5
113
330
1F
100
AcDbEntity
  8
IMAGE
 62
     7
100
AcDbPolyline
 90
        3
 70
     0
 43
0.0
 10
548.353725
 20
13.284869
 10
547.866356
 20
13.388811
 10
547.548442
 20
13.647484
  0
SPLINE
  5
114
330
1F
100
AcDbEntity
  8
IMAGE
 62
     7
100
AcDbSpline
210
0.0
220
0.0
230
1.0
 70
  1064
 71
     3
 72
    22
 73
    18
 74
    16
 42
0.000000001
 43
0.0000001
 44
0.0000000001
 40
0.0
 40
0.0
 40
0.0
 40
0.0
 40
0.2993908897795343
 40
0.6932294141237341
 40
1.098192446067432
 40
1.455527955010847
 40
1.724047869787551
 40
1.848596080541784
 40
1.956364010895327
 40
2.176254903587801
 40
2.463703708894591
 40
2.753547051002298
 40
2.980325644813287
 40
3.099571336578347
 40
3.216314698910646
 40
3.426182224979146
 40
3.686404972321514
 40
3.686404972321514
 40
3.686404972321514
 40
3.686404972321514
 10
547.5484416496084
 20
13.64748362736563
 30
0.0
 10
547.4755714521108
 20
13.71570073755441
 30
0.0
 10
547.3068429902808
 20
13.87365513411003
 30
0.0
 10
547.0695147032596
 20
14.15457681768946
 30
0.0
 10
546.8385693868988
 20
14.45837342611632
 30
0.0
 10
546.6350674254886
 20
14.74951534399445
 30
0.0
 10
546.4817048446095
 20
14.9140239693714
 30
0.0
 10
546.3512257290778
 20
15.07984665051516
 30
0.0
 10
546.2198873047465
 20
14.94968294159543
 30
0.0
 10
546.084405363775
 20
14.81972626732357
 30
0.0
 10
545.9123246955467
 20
14.60892577982474
 30
0.0
 10
545.7382900621756
 20
14.40204285573778
 30
0.0
 10
545.5909037054344
 20
14.26352802145584
 30
0.0
 10
545.4566040844265
 20
14.15149507642555
 30
0.0
 10
545.3125791588
 20
14.23745511225178
 30
0.0
 10
545.1493515001674
 20
14.32856633483098
 30
0.0
 10
545.0219815101735
 20
14.4229003961312
 30
0.0
 10
544.9514746935048
 20
14.47511987393786
 30
0.0
 11
547.5484416496084
 21
13.64748362736563
 31
0.0
 11
547.3333592454719
 21
13.85574899729985
 31
0.0
 11
547.0750939996342
 21
14.15308356651439
 31
0.0
 11
546.8295585155548
 21
14.47511987393786
 31
0.0
 11
546.6161145415414
 21
14.76170378121319
 31
0.0
 11
546.4419810595675
 21
14.96610650890378
 31
0.0
 11
546.3448565235922
 21
15.0440749724878
 31
0.0
 11
546.2549397453887
 21
14.98467042880473
 31
0.0
 11
546.0997044825189
 21
14.82893341377354
 31
0.0
 11
545.9127584223779
 21
14.61058051988367
 31
0.0
 11
545.7221447784214
 21
14.39223308641635
 31
0.0
 11
545.5572958349309
 21
14.23649819488282
 31
0.0
 11
545.4539003070086
 21
14.17709365119976
 31
0.0
 11
545.344533807023
 21
14.21793457833867
 31
0.0
 11
545.1640325622805
 21
14.3250031504992
 31
0.0
 11
544.9514746935048
 21
14.47511987393786
 31
0.0
  0
LWPOLYLINE
  5
115
330
1F
100
AcDbEntity
  8
IMAGE
 62
     7
100
AcDbPolyline
 90
        5
 70
     0
 43
0.0
 10
544.951475
 20
14.47512
 10
544.559546
 20
14.773146
 10
543.912688
 20
15.640119
 10
543.265831
 20
16.507101
 10
542.968231
 20
17.1577
  0
SPLINE
  5
116
330
1F
100
AcDbEntity
  8
IMAGE
 62
     7
100
AcDbSpline
210
0.0
220
0.0
230
1.0
 70
  1064
 71
     3
 72
    10
 73
     6
 74
     4
 42
0.000000001
 43
0.0000001
 44
0.0000000001
 40
0.0
 40
0.0
 40
0.0
 40
0.0
 40
0.3956348495162657
 40
0.745803034235112
 40
0.9761112997605141
 40
0.9761112997605141
 40
0.9761112997605141
 40
0.9761112997605141
 10
542.9682313236906
 20
17.15769988520172
 30
0.0
 10
542.9156816347112
 20
17.27860980943439
 30
0.0
 10
542.8166213079052
 20
17.50653459531237
 30
0.0
 10
542.698694915271
 20
17.81053547205599
 30
0.0
 10
542.6513017406938
 20
17.99826719572854
 30
0.0
 10
542.6324981530031
 20
18.07275112637711
 30
0.0
 11
542.9682313236906
 21
17.15769988520172
 31
0.0
 11
542.8131031457742
 21
17.52165342972095
 31
0.0
 11
542.6924878719699
 21
17.85039301254358
 31
0.0
 11
542.6324981530031
 21
18.07275112637711
 31
0.0
  0
LWPOLYLINE
  5
117
330
1F
100
AcDbEntity
  8
IMAGE
 62
     7
100
AcDbPolyline
 90
        9
 70
     0
 43
0.0
 10
542.632498
 20
18.072751
 10
542.594365
 20
18.337195
 10
541.293894
 20
19.123014
 10
539.993423
 20
19.908833
 10
539.092651
 20
20.808907
 10
538.191879
 20
21.708986
 10
537.727934
 20
22.413407
 10
537.263988
 20
23.117829
 10
536.878221
 20
24.038995
  0
SPLINE
  5
118
330
1F
100
AcDbEntity
  8
IMAGE
 62
     7
100
AcDbSpline
210
0.0
220
0.0
230
1.0
 70
  1064
 71
     3
 72
    10
 73
     6
 74
     4
 42
0.000000001
 43
0.0000001
 44
0.0000000001
 40
0.0
 40
0.0
 40
0.0
 40
0.0
 40
0.6118873927055568
 40
1.256311244418076
 40
1.794099131077294
 40
1.794099131077294
 40
1.794099131077294
 40
1.794099131077294
 10
536.8782214420413
 20
24.03899507040812
 30
0.0
 10
536.8015483477343
 20
24.22799979605361
 30
0.0
 10
536.6441251491676
 20
24.61605937189591
 30
0.0
 10
536.4334282134496
 20
25.17588583010382
 30
0.0
 10
536.306662170688
 20
25.54902758311727
 30
0.0
 10
536.2489963228335
 20
25.71876969298146
 30
0.0
 11
536.8782214420413
 21
24.03899507040812
 31
0.0
 11
536.6505466967807
 21
24.60694787806252
 31
0.0
 11
536.4244918768778
 21
25.21042225121741
 31
0.0
 11
536.2489963228335
 21
25.71876969298146
 31
0.0
  0
LWPOLYLINE
  5
119
330
1F
100
AcDbEntity
  8
IMAGE
 62
     7
100
AcDbPolyline
 90
        5
 70
     0
 43
0.0
 10
536.248996
 20
25.71877
 10
536.005538
 20
26.477378
 10
535.956225
 20
28.180331
 10
535.906913
 20
29.883285
 10
536.086639
 20
30.943831
  0
SPLINE
  5
11A
330
1F
100
AcDbEntity
  8
IMAGE
 62
     7
100
AcDbSpline
210
0.0
220
0.0
230
1.0
 70
  1064
 71
     3
 72
    10
 73
     6
 74
     4
 42
0.000000001
 43
0.0000001
 44
0.0000000001
 40
0.0
 40
0.0
 40
0.0
 40
0.0
 40
2.071669441427134
 40
3.999062242505394
 40
6.098005161553151
 40
6.098005161553151
 40
6.098005161553151
 40
6.098005161553151
 10
536.0866388488118
 20
30.94383104731702
 30
0.0
 10
536.2209972064597
 20
31.62226934330885
 30
0.0
 10
536.4803568438085
 20
32.93189766485307
 30
0.0
 10
537.2489186398436
 20
34.83020084546494
 30
0.0
 10
537.9736152884593
 20
35.96206457519531
 30
0.0
 10
538.3514021906957
 20
36.55210910351653
 30
0.0
 11
536.0866388488118
 21
30.94383104731702
 31
0.0
 11
536.5553724417277
 21
32.96177631253487
 31
0.0
 11
537.2770774008147
 21
34.74894864940604
 31
0.0
 11
538.3514021906957
 21
36.55210910351653
 31
0.0
  0
LWPOLYLINE
  5
11B
330
1F
100
AcDbEntity
  8
IMAGE
 62
     7
100
AcDbPolyline
 90
        5
 70
     0
 43
0.0
 10
538.351402
 20
36.552109
 10
539.066369
 20
37.606533
 10
539.137729
 20
37.986915
 10
539.209089
 20
38.367296
 10
539.13936
 20
38.978877
  0
SPLINE
  5
11C
330
1F
100
AcDbEntity
  8
IMAGE
 62
     7
100
AcDbSpline
210
0.0
220
0.0
230
1.0
 70
  1064
 71
     3
 72
    10
 73
     6
 74
     4
 42
0.000000001
 43
0.0000001
 44
0.0000000001
 40
0.0
 40
0.0
 40
0.0
 40
0.0
 40
0.4149560567869162
 40
0.9111380682438011
 40
1.381143561309814
 40
1.381143561309814
 40
1.381143561309814
 40
1.381143561309814
 10
539.1393596700627
 20
38.97887681209683
 30
0.0
 10
539.1230884421777
 20
39.11623550712987
 30
0.0
 10
539.0873609599523
 20
39.41784030118441
 30
0.0
 10
539.0293566089126
 20
39.874559646601
 30
0.0
 10
538.9866574544642
 20
40.1937793046974
 30
0.0
 10
538.9658862925044
 20
40.34906489067075
 30
0.0
 11
539.1393596700627
 21
38.97887681209683
 31
0.0
 11
539.0900195952179
 21
39.39088905230147
 31
0.0
 11
539.0276976691067
 21
39.88314159522959
 31
0.0
 11
538.9658862925044
 21
40.34906489067075
 31
0.0
  0
LWPOLYLINE
  5
11D
330
1F
100
AcDbEntity
  8
IMAGE
 62
     7
100
AcDbPolyline
 90
        5
 70
     0
 43
0.0
 10
538.965886
 20
40.349065
 10
538.862142
 20
41.107672
 10
538.792923
 20
43.925359
 10
538.723703
 20
46.743045
 10
538.839617
 20
47.772585
  0
SPLINE
  5
11E
330
1F
100
AcDbEntity
  8
IMAGE
 62
     7
100
AcDbSpline
210
0.0
220
0.0
230
1.0
 70
  1064
 71
     3
 72
    16
 73
    12
 74
    10
 42
0.000000001
 43
0.0000001
 44
0.0000000001
 40
0.0
 40
0.0
 40
0.0
 40
0.0
 40
2.27226878833252
 40
4.243846522461789
 40
5.832740311750378
 40
6.324500745722672
 40
6.910697768291604
 40
7.464422991536516
 40
8.033585695746577
 40
8.66070170786079
 40
9.21048282747347
 40
9.21048282747347
 40
9.21048282747347
 40
9.21048282747347
 10
538.8396173578585
 20
47.77258458588238
 30
0.0
 10
538.9312734489458
 20
48.52451364803464
 30
0.0
 10
539.1024567109878
 20
49.92886842856856
 30
0.0
 10
539.4257030941362
 20
51.84688572801002
 30
0.0
 10
539.725574825082
 20
53.16512301639282
 30
0.0
 10
539.9689849672528
 20
54.02014471762219
 30
0.0
 10
540.1154455247315
 20
54.54393679758028
 30
0.0
 10
540.2661852330112
 20
55.09335606174214
 30
0.0
 10
540.4353395575943
 20
55.65168810945416
 30
0.0
 10
540.6187813483291
 20
56.20419083443592
 30
0.0
 10
540.7563650395263
 20
56.57160034822294
 30
0.0
 10
540.8206365155521
 20
56.74323371226196
 30
0.0
 11
538.8396173578585
 21
47.77258458588238
 31
0.0
 11
539.1329354829275
 21
50.0258422107305
 31
0.0
 11
539.4671982831638
 21
51.96887775906523
 31
0.0
 11
539.8277202554644
 21
53.5163296585207
 31
0.0
 11
539.9600262939579
 21
53.98995761018613
 31
0.0
 11
540.1178895368604
 21
54.55449826045764
 31
0.0
 11
540.2671338061175
 21
55.08773157801342
 31
0.0
 11
540.432012781932
 21
55.6324894207271
 31
0.0
 11
540.6308637766689
 21
56.2272438024194
 31
0.0
 11
540.8206365155521
 21
56.74323371226196
 31
0.0
  0
LWPOLYLINE
  5
11F
330
1F
100
AcDbEntity
  8
IMAGE
 62
     7
100
AcDbPolyline
 90
        5
 70
     0
 43
0.0
 10
540.820637
 20
56.743234
 10
541.131335
 20
57.531756
 10
541.130694
 20
57.881146
 10
541.130051
 20
58.230536
 10
540.954654
 20
58.555653
  0
SPLINE
  5
120
330
1F
100
AcDbEntity
  8
IMAGE
 62
     7
100
AcDbSpline
210
0.0
220
0.0
230
1.0
 70
  1064
 71
     3
 72
    25
 73
    21
 74
    19
 42
0.000000001
 43
0.0000001
 44
0.0000000001
 40
0.0
 40
0.0
 40
0.0
 40
0.0
 40
0.3022752881882337
 40
0.7396713300410043
 40
1.217517104709674
 40
1.732617292580907
 40
2.268016337626402
 40
2.708242729037007
 40
4.036657725314388
 40
5.144457361891769
 40
6.251383568376994
 40
8.08346013211665
 40
9.875250333825665
 40
10.96112326535256
 40
11.19475257283566
 40
11.41928673802686
 40
11.58762088942995
 40
11.76168282068377
 40
12.00284095818201
 40
12.26116771988784
 40
12.26116771988784
 40
12.26116771988784
 40
12.26116771988784
 10
540.9546540931595
 20
58.55565322288388
 30
0.0
 10
540.9077261096529
 20
58.64481674495278
 30
0.0
 10
540.7928927596142
 20
58.86300097481535
 30
0.0
 10
540.6082186304648
 20
59.22440156485899
 30
0.0
 10
540.3955792751133
 20
59.65114655133447
 30
0.0
 10
540.1598062971586
 20
60.10279164012692
 30
0.0
 10
539.9181968762707
 20
60.53714863773145
 30
0.0
 10
539.5190147378536
 20
61.19338033404684
 30
0.0
 10
538.997230977668
 20
61.99795794089172
 30
0.0
 10
538.4174027156199
 20
63.02815587601803
 30
0.0
 10
537.8391012072042
 20
64.24713635967622
 30
0.0
 10
537.1571054929886
 20
65.6694392193554
 30
0.0
 10
536.4273044019853
 20
67.0582552836805
 30
0.0
 10
535.927188260671
 20
67.96968612184924
 30
0.0
 10
535.6301610560683
 20
68.3899757049179
 30
0.0
 10
535.5230465051749
 20
68.5701027420011
 30
0.0
 10
535.450996442969
 20
68.7449586917964
 30
0.0
 10
535.3680842671109
 20
68.92127987780125
 30
0.0
 10
535.2416912202249
 20
69.10786854926121
 30
0.0
 10
535.1374474828614
 20
69.23764412493756
 30
0.0
 10
535.0835340469513
 20
69.30476227859225
 30
0.0
 11
540.9546540931595
 21
58.55565322288388
 31
0.0
 11
540.8143109193796
 21
58.82337349373139
 31
0.0
 11
540.6149848678806
 21
59.21271193599245
 31
0.0
 11
540.3998290513964
 21
59.63937873690591
 31
0.0
 11
540.1609655969648
 21
60.09574750630408
 31
0.0
 11
539.8994874991674
 21
60.56295339433191
 31
0.0
 11
539.6720035653394
 21
60.93984905037551
 31
0.0
 11
538.9700695828947
 21
62.06766777988123
 31
0.0
 11
538.4287548399584
 21
63.03420716546302
 31
0.0
 11
537.9422032815338
 21
64.0284672962127
 31
0.0
 11
537.1412994436472
 21
65.67621047336823
 31
0.0
 11
536.3114626467855
 21
67.26425424402277
 31
0.0
 11
535.7619333048297
 21
68.20081044935827
 31
0.0
 11
535.63096051951
 21
68.39427564731557
 31
0.0
 11
535.5190694841635
 21
68.58894456508929
 31
0.0
 11
535.450483543312
 21
68.74267275133406
 31
0.0
 11
535.3742921439126
 21
68.89917331545246
 31
0.0
 11
535.2424620722519
 21
69.10110914557566
 31
0.0
 11
535.0835340469513
 21
69.30476227859225
 31
0.0
  0
LWPOLYLINE
  5
121
330
1F
100
AcDbEntity
  8
IMAGE
 62
     7
100
AcDbPolyline
 90
        3
 70
     0
 43
0.0
 10
535.083534
 20
69.304762
 10
534.787237
 20
69.650107
 10
533.543113
 20
70.209958
  0
SPLINE
  5
122
330
1F
100
AcDbEntity
  8
IMAGE
 62
     7
100
AcDbSpline
210
0.0
220
0.0
230
1.0
 70
  1064
 71
     3
 72
    10
 73
     6
 74
     4
 42
0.000000001
 43
0.0000001
 44
0.0000000001
 40
0.0
 40
0.0
 40
0.0
 40
0.0
 40
0.7564699619034864
 40
1.428211494955373
 40
1.869795832728864
 40
1.869795832728864
 40
1.869795832728864
 40
1.869795832728864
 10
533.5431127448915
 20
70.20995806377053
 30
0.0
 10
533.3131788433875
 20
70.31346350921379
 30
0.0
 10
532.8790647902906
 20
70.50888127121002
 30
0.0
 10
532.3107971073662
 20
70.76487252580485
 30
0.0
 10
531.9725612161403
 20
70.91757518025165
 30
0.0
 10
531.8384049228642
 20
70.97814244299758
 30
0.0
 11
533.5431127448915
 21
70.20995806377053
 31
0.0
 11
532.8533257757757
 21
70.52050715892358
 31
0.0
 11
532.2408935794203
 21
70.79648449874378
 31
0.0
 11
531.8384049228642
 21
70.97814244299758
 31
0.0
  0
LWPOLYLINE
  5
123
330
1F
100
AcDbEntity
  8
IMAGE
 62
     7
100
AcDbPolyline
 90
        5
 70
     0
 43
0.0
 10
531.838405
 20
70.978142
 10
531.377822
 20
71.186473
 10
531.377822
 20
71.492634
 10
531.377822
 20
71.798796
 10
532.277301
 20
72.654931
  0
SPLINE
  5
124
330
1F
100
AcDbEntity
  8
IMAGE
 62
     7
100
AcDbSpline
210
0.0
220
0.0
230
1.0
 70
  1064
 71
     3
 72
    10
 73
     6
 74
     4
 42
0.000000001
 43
0.0000001
 44
0.0000000001
 40
0.0
 40
0.0
 40
0.0
 40
0.0
 40
0.6452127973374662
 40
1.143176687641947
 40
1.386548524052517
 40
1.386548524052517
 40
1.386548524052517
 40
1.386548524052517
 10
532.2773012501586
 20
72.65493112450406
 30
0.0
 10
532.4319242177247
 20
72.80436283223159
 30
0.0
 10
532.7058824724662
 20
73.06912330408453
 30
0.0
 10
533.0373579417114
 20
73.39174734892141
 30
0.0
 10
533.2004799521458
 20
73.57744626500006
 30
0.0
 10
533.2540309976542
 20
73.63840904420644
 30
0.0
 11
532.2773012501586
 21
72.65493112450406
 31
0.0
 11
532.7409584702398
 21
73.10361980957944
 31
0.0
 11
533.0918576612155
 21
73.45694373152608
 31
0.0
 11
533.2540309976542
 21
73.63840904420644
 31
0.0
  0
LWPOLYLINE
  5
125
330
1F
100
AcDbEntity
  8
IMAGE
 62
     7
100
AcDbPolyline
 90
        5
 70
     0
 43
0.0
 10
533.254031
 20
73.638409
 10
533.331281
 20
73.765755
 10
533.211103
 20
74.017713
 10
533.090925
 20
74.269673
 10
532.383405
 20
74.865722
  0
SPLINE
  5
126
330
1F
100
AcDbEntity
  8
IMAGE
 62
     7
100
AcDbSpline
210
0.0
220
0.0
230
1.0
 70
  1064
 71
     3
 72
    16
 73
    12
 74
    10
 42
0.000000001
 43
0.0000001
 44
0.0000000001
 40
0.0
 40
0.0
 40
0.0
 40
0.0
 40
0.5380432475920225
 40
1.059314936747829
 40
1.45098771454784
 40
1.725578838994656
 40
1.940592958952684
 40
2.05174926884143
 40
2.150244390803571
 40
2.331757018916531
 40
2.559659322872182
 40
2.559659322872182
 40
2.559659322872182
 40
2.559659322872182
 10
532.3834048443111
 20
74.86572182971929
 30
0.0
 10
532.2465931220678
 20
74.98169935222893
 30
0.0
 10
531.9772342897745
 20
75.21003921611776
 30
0.0
 10
531.609431126629
 20
75.52398052094696
 30
0.0
 10
531.313520404177
 20
75.7873935951375
 30
0.0
 10
531.0888267600079
 20
75.97561449490718
 30
0.0
 10
530.9318150006086
 20
76.1024292932769
 30
0.0
 10
530.8032765475962
 20
76.16252462352443
 30
0.0
 10
530.6828106759384
 20
76.2136458004854
 30
0.0
 10
530.5512069219928
 20
76.32317711070482
 30
0.0
 10
530.4494043650255
 20
76.4135556933922
 30
0.0
 10
530.3927356031799
 20
76.4638652586018
 30
0.0
 11
532.3834048443111
 21
74.86572182971929
 31
0.0
 11
531.9731860495588
 21
75.21387564157732
 31
0.0
 11
531.5778608606804
 21
75.55364345781899
 31
0.0
 11
531.2830144240098
 21
75.81146731950025
 31
0.0
 11
531.0726525551715
 21
75.98795576037907
 31
0.0
 11
530.8988136326589
 21
76.11449073894607
 31
0.0
 11
530.7991327088577
 21
76.16367852867302
 31
0.0
 11
530.7100701834271
 21
76.20573986025283
 31
0.0
 11
530.56406819174
 21
76.31358350905927
 31
0.0
 11
530.3927356031799
 21
76.4638652586018
 31
0.0
  0
LWPOLYLINE
  5
127
330
1F
100
AcDbEntity
  8
IMAGE
 62
     7
100
AcDbPolyline
 90
        5
 70
     0
 43
0.0
 10
530.392736
 20
76.463865
 10
530.077351
 20
76.761538
 10
530.077351
 20
77.00323
 10
530.077351
 20
77.244922
 10
530.326986
 20
77.408489
  0
SPLINE
  5
128
330
1F
100
AcDbEntity
  8
IMAGE
 62
     7
100
AcDbSpline
210
0.0
220
0.0
230
1.0
 70
  1064
 71
     3
 72
    10
 73
     6
 74
     4
 42
0.000000001
 43
0.0000001
 44
0.0000000001
 40
0.0
 40
0.0
 40
0.0
 40
0.0
 40
0.2423884849677018
 40
0.5931404667207762
 40
0.9774297120228272
 40
0.9774297120228272
 40
0.9774297120228272
 40
0.9774297120228272
 10
530.3269860484885
 20
77.40848893490465
 30
0.0
 10
530.3978335709864
 20
77.44740939798987
 30
0.0
 10
530.5712020895697
 20
77.54265031524068
 30
0.0
 10
530.8718118899486
 20
77.66961472162785
 30
0.0
 10
531.1011558281272
 20
77.75569881659484
 30
0.0
 10
531.2210598629939
 20
77.80070471649509
 30
0.0
 11
530.3269860484885
 21
77.40848893490465
 31
0.0
 11
530.5410403764008
 21
77.52221194201817
 31
0.0
 11
530.8622445760984
 21
77.66311905610519
 31
0.0
 11
531.2210598629939
 21
77.80070471649509
 31
0.0
  0
LWPOLYLINE
  5
129
330
1F
100
AcDbEntity
  8
IMAGE
 62
     7
100
AcDbPolyline
 90
        5
 70
     0
 43
0.0
 10
531.22106
 20
77.800705
 10
531.865498
 20
78.029352
 10
533.150273
 20
78.088471
 10
534.435047
 20
78.14759
 10
534.356639
 20
78.592828
  0
SPLINE
  5
12A
330
1F
100
AcDbEntity
  8
IMAGE
 62
     7
100
AcDbSpline
210
0.0
220
0.0
230
1.0
 70
  1064
 71
     3
 72
    10
 73
     6
 74
     4
 42
0.000000001
 43
0.0000001
 44
0.0000000001
 40
0.0
 40
0.0
 40
0.0
 40
0.0
 40
0.3346193681195274
 40
0.7775977858203496
 40
1.233232947224921
 40
1.233232947224921
 40
1.233232947224921
 40
1.233232947224921
 10
534.3566386528694
 20
78.59282758820066
 30
0.0
 10
534.3396909019626
 20
78.70307825532186
 30
0.0
 10
534.3003072474726
 20
78.95928181915153
 30
0.0
 10
534.2519727723313
 20
79.36759119828679
 30
0.0
 10
534.2224323770308
 20
79.66566578809562
 30
0.0
 10
534.2074541449035
 20
79.81680223539189
 30
0.0
 11
534.3566386528694
 21
78.59282758820066
 31
0.0
 11
534.3074447960063
 21
78.92381110133636
 31
0.0
 11
534.2538489284939
 21
79.36353528936144
 31
0.0
 11
534.2074541449035
 21
79.81680223539189
 31
0.0
  0
LWPOLYLINE
  5
12B
330
1F
100
AcDbEntity
  8
IMAGE
 62
     7
100
AcDbPolyline
 90
        5
 70
     0
 43
0.0
 10
534.207454
 20
79.816802
 10
534.136679
 20
80.595538
 10
534.229311
 20
80.873435
 10
534.321943
 20
81.15133
 10
534.485035
 20
81.15133
  0
SPLINE
  5
12C
330
1F
100
AcDbEntity
  8
IMAGE
 62
     7
100
AcDbSpline
210
0.0
220
0.0
230
1.0
 70
  1064
 71
     3
 72
    13
 73
     9
 74
     7
 42
0.000000001
 43
0.0000001
 44
0.0000000001
 40
0.0
 40
0.0
 40
0.0
 40
0.0
 40
0.5197068743061344
 40
1.397595818323889
 40
2.18871610112626
 40
2.542353455520053
 40
3.036331949802881
 40
3.563713465037017
 40
3.563713465037017
 40
3.563713465037017
 40
3.563713465037017
 10
534.4850350288139
 20
81.1513301144038
 30
0.0
 10
534.6507416056174
 20
81.10014071169942
 30
0.0
 10
535.0963597612721
 20
80.96248216089097
 30
0.0
 10
535.752671504332
 20
80.63895179345096
 30
0.0
 10
536.3520141381398
 20
80.32875922002881
 30
0.0
 10
536.8066782848161
 20
80.02536801487429
 30
0.0
 10
537.1909656042665
 20
79.7757383529176
 30
0.0
 10
537.4749692728398
 20
79.58796048622136
 30
0.0
 10
537.6216151995145
 20
79.49100096661715
 30
0.0
 11
534.4850350288139
 21
81.1513301144038
 31
0.0
 11
534.9784858311359
 21
80.9882303262716
 31
0.0
 11
535.7770529115261
 21
80.62356662346349
 31
0.0
 11
536.4713316849063
 21
80.24429325675428
 31
0.0
 11
536.7680410357384
 21
80.05187979685232
 31
0.0
 11
537.1812912750788
 21
79.78125276106502
 31
0.0
 11
537.6216151995145
 21
79.49100096661715
 31
0.0
  0
LWPOLYLINE
  5
12D
330
1F
100
AcDbEntity
  8
IMAGE
 62
     7
100
AcDbPolyline
 90
        5
 70
     0
 43
0.0
 10
537.621615
 20
79.491001
 10
538.392594
 20
78.98094
 10
538.976272
 20
78.810639
 10
539.55995
 20
78.64034
 10
540.968792
 20
77.912086
  0
SPLINE
  5
12E
330
1F
100
AcDbEntity
  8
IMAGE
 62
     7
100
AcDbSpline
210
0.0
220
0.0
230
1.0
 70
  1064
 71
     3
 72
    16
 73
    12
 74
    10
 42
0.000000001
 43
0.0000001
 44
0.0000000001
 40
0.0
 40
0.0
 40
0.0
 40
0.0
 40
1.479688827430593
 40
3.518166401579685
 40
6.558514275089928
 40
7.027752520744511
 40
7.643774630439097
 40
8.273223949936927
 40
8.870695984658935
 40
9.402876672302261
 40
9.754552040414532
 40
9.754552040414532
 40
9.754552040414532
 40
9.754552040414532
 10
540.9687923405802
 20
77.91208641575997
 30
0.0
 10
541.4032896868406
 20
77.67852267745457
 30
0.0
 10
542.4363676805722
 20
77.12319233941294
 30
0.0
 10
544.3065994641569
 20
75.98971891228993
 30
0.0
 10
545.8753872573117
 20
75.0108129883061
 30
0.0
 10
547.0447182901638
 20
74.2870164788017
 30
0.0
 10
547.5326020755663
 20
73.98925137796185
 30
0.0
 10
548.0579576607386
 20
73.67084221569252
 30
0.0
 10
548.5600740138425
 20
73.36801227527556
 30
0.0
 10
548.9826048166399
 20
73.11250742079463
 30
0.0
 10
549.2344607855506
 20
72.95963898358073
 30
0.0
 10
549.3346711535186
 20
72.89881452740389
 30
0.0
 11
540.9687923405802
 21
77.91208641575997
 31
0.0
 11
542.2670068928212
 21
77.20207373814597
 31
0.0
 11
544.0189434263054
 21
76.1599081068992
 31
0.0
 11
546.6041650134946
 21
74.55980044268111
 31
0.0
 11
547.0033373734194
 21
74.31313070749448
 31
0.0
 11
547.5289446041643
 21
73.99185157866523
 31
0.0
 11
548.0671945332635
 21
73.66551822204823
 31
0.0
 11
548.5786471353202
 21
73.35666701495282
 31
0.0
 11
549.0339999627665
 21
73.08122176297488
 31
0.0
 11
549.3346711535186
 21
72.89881452740389
 31
0.0
  0
LWPOLYLINE
  5
12F
330
1F
100
AcDbEntity
  8
IMAGE
 62
     7
100
AcDbPolyline
 90
        5
 70
     0
 43
0.0
 10
549.334671
 20
72.898815
 10
549.680982
 20
72.687887
 10
549.861878
 20
72.963969
 10
550.042775
 20
73.240051
 10
549.870569
 20
74.94696
  0
SPLINE
  5
130
330
1F
100
AcDbEntity
  8
IMAGE
 62
     7
100
AcDbSpline
210
0.0
220
0.0
230
1.0
 70
  1064
 71
     3
 72
    19
 73
    15
 74
    13
 42
0.000000001
 43
0.0000001
 44
0.0000000001
 40
0.0
 40
0.0
 40
0.0
 40
0.0
 40
0.9832473306533661
 40
1.911858347491717
 40
2.584830843158268
 40
4.158693088820932
 40
5.889359946078651
 40
6.88697694980599
 40
7.942622262785357
 40
9.953287476296152
 40
12.64841466802569
 40
14.26876641247951
 40
15.75142012705881
 40
16.77543296286415
 40
16.77543296286415
 40
16.77543296286415
 40
16.77543296286415
 10
549.8705691572809
 20
74.94696047969978
 30
0.0
 10
549.8384133822059
 20
75.27312775314603
 30
0.0
 10
549.7758886388574
 20
75.90733809369432
 30
0.0
 10
549.695564560995
 20
76.76521241172412
 30
0.0
 10
549.6092509535338
 20
77.82018178086683
 30
0.0
 10
549.4942750789836
 20
79.14098131223642
 30
0.0
 10
549.3594548445617
 20
80.56888458795719
 30
0.0
 10
549.2037119050896
 20
81.82055697652044
 30
0.0
 10
549.0493273093066
 20
83.16655710620356
 30
0.0
 10
548.9216568417357
 20
85.08333905524219
 30
0.0
 10
548.7878055909555
 20
87.18760576506054
 30
0.0
 10
548.6730002936149
 20
89.11693656945121
 30
0.0
 10
548.5847250723293
 20
90.4897889930788
 30
0.0
 10
548.522955209695
 20
91.32306219744225
 30
0.0
 10
548.4977212462094
 20
91.663467448739
 30
0.0
 11
549.8705691572809
 21
74.94696047969978
 31
0.0
 11
549.7749253058882
 21
75.92554495072298
 31
0.0
 11
549.6897169287107
 21
76.85023838805901
 31
0.0
 11
549.633390849921
 21
77.52084956659084
 31
0.0
 11
549.4969852475166
 21
79.08878957818408
 31
0.0
 11
549.3257005893321
 21
80.81095952818347
 31
0.0
 11
549.2076368496446
 21
81.80156572617383
 31
0.0
 11
549.0913604882734
 21
82.85078774014494
 31
0.0
 11
548.9376841760428
 21
84.85557156686582
 31
0.0
 11
548.76735084481
 21
87.54531079881212
 31
0.0
 11
548.6689291551213
 21
89.16267066809087
 31
0.0
 11
548.5720624724332
 21
90.64215668801157
 31
0.0
 11
548.4977212462094
 21
91.663467448739
 31
0.0
  0
LWPOLYLINE
  5
131
330
1F
100
AcDbEntity
  8
IMAGE
 62
     7
100
AcDbPolyline
 90
        9
 70
     0
 43
0.0
 10
548.497721
 20
91.663467
 10
548.395743
 20
92.909752
 10
548.394026
 20
96.399667
 10
548.392308
 20
99.889583
 10
548.517127
 20
100.163531
 10
548.641946
 20
100.437478
 10
548.837829
 20
100.499649
 10
549.033714
 20
100.56182
 10
549.833477
 20
99.95987
  0
SPLINE
  5
132
330
1F
100
AcDbEntity
  8
IMAGE
 62
     7
100
AcDbSpline
210
0.0
220
0.0
230
1.0
 70
  1064
 71
     3
 72
    37
 73
    33
 74
    31
 42
0.000000001
 43
0.0000001
 44
0.0000000001
 40
0.0
 40
0.0
 40
0.0
 40
0.0
 40
0.5124278826260728
 40
0.8938593835004978
 40
1.062670811702777
 40
1.869918264938326
 40
3.752614823527908
 40
6.374602880081072
 40
7.422542743486564
 40
8.568369408552291
 40
9.564101920375698
 40
10.49615997196249
 40
11.47504416681064
 40
12.28892737292841
 40
13.21927329417108
 40
14.50338747868779
 40
15.86327997720955
 40
17.3624993659791
 40
19.01198567018861
 40
20.45476029450352
 40
22.69802269190235
 40
24.49349242526149
 40
25.22349140410003
 40
25.89604030583636
 40
27.28298671312577
 40
28.67082359548358
 40
29.2253885619019
 40
29.62821539486735
 40
29.79210259784525
 40
29.83172332016218
 40
29.92253957979348
 40
30.04644549286698
 40
30.04644549286698
 40
30.04644549286698
 40
30.04644549286698
 10
549.8334771135824
 20
99.95986966523597
 30
0.0
 10
549.9712241361631
 20
99.85906936064563
 30
0.0
 10
550.2115047158461
 20
99.68323720714139
 30
0.0
 10
550.4966429203259
 20
99.47128984006434
 30
0.0
 10
550.8972519065975
 20
99.25971209747264
 30
0.0
 10
551.6643406164711
 20
98.68689239276283
 30
0.0
 10
552.9779152396698
 20
97.50079304538832
 30
0.0
 10
554.3344995794132
 20
96.24109193086227
 30
0.0
 10
555.5028892099596
 20
95.14037115305157
 30
0.0
 10
556.2850937447201
 20
94.4202559234445
 30
0.0
 10
557.04617315117
 20
93.73436785431835
 30
0.0
 10
557.7668879040359
 20
93.086811812153
 30
0.0
 10
558.4354038759959
 20
92.47190534423837
 30
0.0
 10
559.0957659932958
 20
91.84911843924499
 30
0.0
 10
559.8260146576639
 20
91.15215698200588
 30
0.0
 10
560.6935578861115
 20
90.33560607359671
 30
0.0
 10
561.7029613737939
 20
89.3925101007404
 30
0.0
 10
562.7939116708941
 20
88.36099719631929
 30
0.0
 10
563.8993711367622
 20
87.29390444510518
 30
0.0
 10
565.1538421179994
 20
86.0664779784915
 30
0.0
 10
566.5171355043368
 20
84.67089378855349
 30
0.0
 10
567.5256501988431
 20
83.90291927201213
 30
0.0
 10
568.581067718995
 20
82.69946138735682
 30
0.0
 10
568.6007283182132
 20
84.0650262225101
 30
0.0
 10
568.8526091034753
 20
84.98057968413656
 30
0.0
 10
569.0182286359935
 20
86.12485511741032
 30
0.0
 10
569.0869484369377
 20
86.92179772075016
 30
0.0
 10
569.1970638577313
 20
87.24567543447542
 30
0.0
 10
569.146229318218
 20
87.50841212946888
 30
0.0
 10
569.2471998822821
 20
87.53773180868508
 30
0.0
 10
569.3303046272721
 20
87.54153682027393
 30
0.0
 10
569.4021932685581
 20
87.5427659276091
 30
0.0
 10
569.443676770825
 20
87.54347518676343
 30
0.0
 11
549.8334771135824
 21
99.95986966523597
 31
0.0
 11
550.2465741577346
 21
99.6566648384186
 31
0.0
 11
550.5607765789332
 21
99.44040844343283
 31
0.0
 11
550.708061163207
 21
99.35791874997375
 31
0.0
 11
551.3706682723445
 21
98.89683278220218
 31
0.0
 11
552.792757970655
 21
97.66305515974173
 31
0.0
 11
554.7158848183562
 21
95.88080812401464
 31
0.0
 11
555.4804543978523
 21
95.16414131480445
 31
0.0
 11
556.3233582892435
 21
94.38797652801415
 31
0.0
 11
557.0621122043294
 21
93.72034947040834
 31
0.0
 11
557.7540912297438
 21
93.09593194990279
 31
0.0
 11
558.4743676816194
 21
92.43304726928548
 31
0.0
 11
559.0670052395014
 21
91.87520625413143
 31
0.0
 11
559.7413234382341
 21
91.23423940629073
 31
0.0
 11
560.6757355176464
 21
90.35343108166768
 31
0.0
 11
561.6679461697975
 21
89.42347106677789
 31
0.0
 11
562.7566892054333
 21
88.39279295115838
 31
0.0
 11
563.9441715453366
 21
87.24793891671013
 31
0.0
 11
564.9733092150822
 21
86.23676421702774
 31
0.0
 11
566.5821256465609
 21
84.67345494711745
 31
0.0
 11
567.9022920075412
 21
83.45654396321396
 31
0.0
 11
568.4773133321922
 21
83.00682295491899
 31
0.0
 11
568.610192411697
 21
83.66611437413869
 31
0.0
 11
568.8363773716708
 21
85.03449323270624
 31
0.0
 11
569.039408319873
 21
86.4073987815714
 31
0.0
 11
569.1135283989834
 21
86.9569881881753
 31
0.0
 11
569.1684035221575
 21
87.35605983363962
 31
0.0
 11
569.1921530233443
 21
87.51821709216756
 31
0.0
 11
569.2294404288275
 21
87.53161302547758
 31
0.0
 11
569.3198022314692
 21
87.54068703433578
 31
0.0
 11
569.443676770825
 21
87.54347518676343
 31
0.0
  0
LWPOLYLINE
  5
133
330
1F
100
AcDbEntity
  8
IMAGE
 62
     7
100
AcDbPolyline
 90
        3
 70
     0
 43
0.0
 10
569.443677
 20
87.543475
 10
569.687516
 20
87.541645
 10
570.175192
 20
87.073409
  0
SPLINE
  5
134
330
1F
100
AcDbEntity
  8
IMAGE
 62
     7
100
AcDbSpline
210
0.0
220
0.0
230
1.0
 70
  1064
 71
     3
 72
    25
 73
    21
 74
    19
 42
0.000000001
 43
0.0000001
 44
0.0000000001
 40
0.0
 40
0.0
 40
0.0
 40
0.0
 40
0.5030666724352423
 40
1.172155328968601
 40
1.86248788624129
 40
3.345733088836514
 40
4.784859792072949
 40
5.490025924458574
 40
5.565274213589622
 40
5.701625128230678
 40
5.875317786606367
 40
6.117672562091812
 40
6.432550111843558
 40
6.752079045999692
 40
7.035169336873852
 40
7.254711237843255
 40
7.36445584021298
 40
7.461429357969006
 40
7.648435498600857
 40
7.886697359141943
 40
7.886697359141943
 40
7.886697359141943
 40
7.886697359141943
 10
570.1751919857447
 20
87.0734086440307
 30
0.0
 10
570.2948230987458
 20
86.95598038300541
 30
0.0
 10
570.5735659658412
 20
86.68237020472431
 30
0.0
 10
571.0093485879984
 20
86.23833862929429
 30
0.0
 10
571.6642371356872
 20
85.56377104132385
 30
0.0
 10
572.5242750745007
 20
84.63645712720485
 30
0.0
 10
573.420099895212
 20
84.10638008428135
 30
0.0
 10
573.9867474406349
 20
83.19505866467233
 30
0.0
 10
574.25622050465
 20
83.36878700120849
 30
0.0
 10
574.328094862208
 20
83.47657675785997
 30
0.0
 10
574.4190240286506
 20
83.63628967969075
 30
0.0
 10
574.5339649130701
 20
83.85134599961441
 30
0.0
 10
574.6860812347932
 20
84.10095426000288
 30
0.0
 10
574.8529721461737
 20
84.3574136491035
 30
0.0
 10
574.999569921622
 20
84.58843371238504
 30
0.0
 10
575.108283211059
 20
84.76249268355738
 30
0.0
 10
575.1585019317957
 20
84.89559312786416
 30
0.0
 10
575.2070670761532
 20
85.01785862435865
 30
0.0
 10
575.3069818010815
 20
85.16186977219724
 30
0.0
 10
575.3901687946114
 20
85.27638203167072
 30
0.0
 10
575.4367753763354
 20
85.34053899603592
 30
0.0
 11
570.1751919857447
 21
87.0734086440307
 31
0.0
 11
570.5332594981071
 21
86.72004801591024
 31
0.0
 11
571.0031922604873
 21
86.24376781566738
 31
0.0
 11
571.4832513764945
 21
85.74768084267882
 31
0.0
 11
572.5414718634785
 21
84.70836100165334
 31
0.0
 11
573.609415542891
 21
83.74369423765091
 31
0.0
 11
574.172185196114
 21
83.3187829625887
 31
0.0
 11
574.2353862502564
 21
83.359623283014
 31
0.0
 11
574.319813483652
 21
83.46669155181772
 31
0.0
 11
574.4071884351564
 21
83.61680736518596
 31
0.0
 11
574.5242726357089
 21
83.8290033292889
 31
0.0
 11
574.6865870330637
 21
84.09882161582453
 31
0.0
 11
574.8589919879422
 21
84.36784814108978
 31
0.0
 11
575.0107765671145
 21
84.60680745627275
 31
0.0
 11
575.1190346013215
 21
84.7978018130242
 31
0.0
 11
575.1603290468892
 21
84.89948094812351
 31
0.0
 11
575.1982125485013
 21
84.98874854275664
 31
0.0
 11
575.2975285340617
 21
85.14720242136545
 31
0.0
 11
575.4367753763354
 21
85.34053899603592
 31
0.0
  0
LWPOLYLINE
  5
135
330
1F
100
AcDbEntity
  8
IMAGE
 62
     7
100
AcDbPolyline
 90
       11
 70
     0
 43
0.0
 10
575.436775
 20
85.340539
 10
575.713222
 20
85.702979
 10
575.871858
 20
85.702979
 10
576.030493
 20
85.702979
 10
576.401742
 20
85.350768
 10
576.772992
 20
84.998557
 10
577.368326
 20
83.860645
 10
577.963658
 20
82.722734
 10
578.117176
 20
82.690818
 10
578.270696
 20
82.658901
 10
579.180989
 20
83.047468
  0
SPLINE
  5
136
330
1F
100
AcDbEntity
  8
IMAGE
 62
     7
100
AcDbSpline
210
0.0
220
0.0
230
1.0
 70
  1064
 71
     3
 72
    19
 73
    15
 74
    13
 42
0.000000001
 43
0.0000001
 44
0.0000000001
 40
0.0
 40
0.0
 40
0.0
 40
0.0
 40
0.5269227236444598
 40
0.9569454628898701
 40
1.197089233666352
 40
2.399603355175322
 40
4.19346499133505
 40
5.729512539187751
 40
6.464455016513784
 40
7.139807205144657
 40
7.609455393048347
 40
9.503222429105717
 40
12.06322341952079
 40
14.05264275767439
 40
14.05264275767439
 40
14.05264275767439
 40
14.05264275767439
 10
579.1809886386798
 20
83.04746761020274
 30
0.0
 10
579.3422066945894
 20
83.11714915790725
 30
0.0
 10
579.6349951438552
 20
83.24369796275246
 30
0.0
 10
580.0006251381134
 20
83.4037289112348
 30
0.0
 10
580.5617209267509
 20
83.67739159367542
 30
0.0
 10
581.5490554885822
 20
84.11346521281828
 30
0.0
 10
582.9563609916951
 20
84.66351804428378
 30
0.0
 10
584.2298917187941
 20
85.1274612818369
 30
0.0
 10
585.1666988620736
 20
85.42253955675385
 30
0.0
 10
585.7614410202638
 20
85.62010148266216
 30
0.0
 10
586.7152030970901
 20
85.96131351337407
 30
0.0
 10
588.2759709523052
 20
86.46943122795074
 30
0.0
 10
590.3302085401847
 20
87.09718274595389
 30
0.0
 10
591.7937849538449
 20
87.4945039821428
 30
0.0
 10
592.433793352699
 20
87.66824887569982
 30
0.0
 11
579.1809886386798
 21
83.04746761020274
 31
0.0
 11
579.6644893376804
 21
83.2569303294604
 31
0.0
 11
580.0570169700701
 21
83.43254813629858
 31
0.0
 11
580.2735912829912
 21
83.53630071518455
 31
0.0
 11
581.3712824344097
 21
84.02733467381262
 31
0.0
 11
583.0391230001336
 21
84.68782495913982
 31
0.0
 11
584.4857145245162
 21
85.20436637166037
 31
0.0
 11
585.1850353914118
 21
85.43039904651621
 31
0.0
 11
585.8255232388518
 21
85.64458563799707
 31
0.0
 11
586.2685157931325
 21
85.80055684448448
 31
0.0
 11
588.066229475745
 21
86.3960222945361
 31
0.0
 11
590.516276179102
 21
87.138232657099
 31
0.0
 11
592.433793352699
 21
87.66824887569982
 31
0.0
  0
LWPOLYLINE
  5
137
330
1F
100
AcDbEntity
  8
IMAGE
 62
     7
100
AcDbPolyline
 90
        7
 70
     0
 43
0.0
 10
592.433793
 20
87.668249
 10
593.288816
 20
87.875334
 10
593.951009
 20
87.899976
 10
594.613203
 20
87.924617
 10
594.643777
 20
87.707871
 10
594.67435
 20
87.491126
 10
594.125961
 20
86.461587
  0
SPLINE
  5
138
330
1F
100
AcDbEntity
  8
IMAGE
 62
     7
100
AcDbSpline
210
0.0
220
0.0
230
1.0
 70
  1064
 71
     3
 72
    19
 73
    15
 74
    13
 42
0.000000001
 43
0.0000001
 44
0.0000000001
 40
0.0
 40
0.0
 40
0.0
 40
0.0
 40
0.7274129272969534
 40
1.513213379555288
 40
2.187384975154738
 40
2.782800602819731
 40
3.362753000542936
 40
3.802802816416387
 40
4.30726652261473
 40
5.055438596752504
 40
5.88583754281766
 40
6.697893268400182
 40
7.397950451314735
 40
7.83496505783019
 40
7.83496505783019
 40
7.83496505783019
 40
7.83496505783019
 10
594.1259613143301
 20
86.46158710493097
 30
0.0
 10
594.0133178954281
 20
86.24686945532427
 30
0.0
 10
593.7789894662723
 20
85.8001993343809
 30
0.0
 10
593.4481993881857
 20
85.15037491748437
 30
0.0
 10
593.14964545306
 20
84.53368352553204
 30
0.0
 10
592.8724249835119
 20
83.9830267508401
 30
0.0
 10
592.6127734993258
 20
83.5108199466392
 30
0.0
 10
592.3372790361667
 20
83.08365182761864
 30
0.0
 10
592.0273469792373
 20
82.61212718263899
 30
0.0
 10
591.6757932673164
 20
82.01304990243214
 30
0.0
 10
591.2838594588479
 20
81.31926774052829
 30
0.0
 10
590.9003892077097
 20
80.63915029627671
 30
0.0
 10
590.5728165431162
 20
80.077741166219
 30
0.0
 10
590.3639722821713
 20
79.76138472223153
 30
0.0
 10
590.283706468378
 20
79.63979839129533
 30
0.0
 11
594.1259613143301
 21
86.46158710493097
 31
0.0
 11
593.7892998718082
 21
85.81677035583257
 31
0.0
 11
593.4338439582109
 21
85.115961220434
 31
0.0
 11
593.1365476119543
 21
84.51088087633451
 31
0.0
 11
592.8668355003016
 21
83.98005590848206
 31
0.0
 11
592.5836974230149
 21
83.473915994214
 31
0.0
 11
592.348430566906
 21
83.1020378597843
 31
0.0
 11
592.0748815983384
 21
82.67818105298872
 31
0.0
 11
591.6913812578584
 21
82.03577235023681
 31
0.0
 11
591.2809552704059
 21
81.31389083748715
 31
0.0
 11
590.8801532777054
 21
80.60763857087227
 31
0.0
 11
590.5218825162813
 21
80.00620518232552
 31
0.0
 11
590.283706468378
 21
79.63979839129533
 31
0.0
  0
LWPOLYLINE
  5
139
330
1F
100
AcDbEntity
  8
IMAGE
 62
     7
100
AcDbPolyline
 90
        5
 70
     0
 43
0.0
 10
590.283706
 20
79.639798
 10
590.006842
 20
79.266176
 10
590.09697
 20
79.176048
 10
590.187097
 20
79.085921
 10
591.208051
 20
79.242197
  0
SPLINE
  5
13A
330
1F
100
AcDbEntity
  8
IMAGE
 62
     7
100
AcDbSpline
210
0.0
220
0.0
230
1.0
 70
  1064
 71
     3
 72
    13
 73
     9
 74
     7
 42
0.000000001
 43
0.0000001
 44
0.0000000001
 40
0.0
 40
0.0
 40
0.0
 40
0.0
 40
0.6621462217777826
 40
1.405289510111514
 40
2.068627450246549
 40
4.076332073500843
 40
5.257627774937562
 40
6.018964486004592
 40
6.018964486004592
 40
6.018964486004592
 40
6.018964486004592
 10
591.208051348741
 20
79.24219650956857
 30
0.0
 10
591.4264321520332
 20
79.27422597432408
 30
0.0
 10
591.8899072002669
 20
79.34220290956134
 30
0.0
 10
592.5734936453936
 20
79.43283677859971
 30
0.0
 10
593.7033667869289
 20
79.56926211618716
 30
0.0
 10
594.9800313318462
 20
79.70723486297638
 30
0.0
 10
596.2888684361851
 20
79.85252830280581
 30
0.0
 10
596.9341562223908
 20
79.90681064923149
 30
0.0
 10
597.1870508398591
 20
79.92808443362358
 30
0.0
 11
591.208051348741
 21
79.24219650956857
 31
0.0
 11
591.8633954891675
 21
79.33686264196717
 31
0.0
 11
592.6000544221334
 21
79.43481958902524
 31
0.0
 11
593.2585455860922
 21
79.51486088968227
 31
0.0
 11
595.2538058291645
 21
79.73805232466896
 31
0.0
 11
596.4286202920983
 21
79.86162623742746
 31
0.0
 11
597.1870508398591
 21
79.92808443362358
 31
0.0
  0
LWPOLYLINE
  5
13B
330
1F
100
AcDbEntity
  8
IMAGE
 62
     7
100
AcDbPolyline
 90
        3
 70
     0
 43
0.0
 10
597.187051
 20
79.928084
 10
597.918565
 20
79.983692
 10
597.918565
 20
79.80178
  0
SPLINE
  5
13C
330
1F
100
AcDbEntity
  8
IMAGE
 62
     7
100
AcDbSpline
210
0.0
220
0.0
230
1.0
 70
  1064
 71
     3
 72
    13
 73
     9
 74
     7
 42
0.000000001
 43
0.0000001
 44
0.0000000001
 40
0.0
 40
0.0
 40
0.0
 40
0.0
 40
0.1252452935074553
 40
0.2821989508455827
 40
0.4395044666335071
 40
1.37061456727295
 40
2.854331546924337
 40
4.035069185342591
 40
4.035069185342591
 40
4.035069185342591
 40
4.035069185342591
 10
597.9185651447085
 20
79.80178030958791
 30
0.0
 10
597.914088662722
 20
79.7601888878201
 30
0.0
 10
597.9040023873442
 20
79.66647633976055
 30
0.0
 10
597.85907328596
 20
79.52610221980517
 30
0.0
 10
597.6910112900837
 20
79.14583646528708
 30
0.0
 10
597.1358977273879
 20
78.47820354003808
 30
0.0
 10
596.441446179748
 20
77.50655050897745
 30
0.0
 10
595.8723502078902
 20
76.82351097495265
 30
0.0
 10
595.6201586226828
 20
76.52082595983498
 30
0.0
 11
597.9185651447085
 21
79.80178030958791
 31
0.0
 11
597.9014400461506
 21
79.67771131851782
 31
0.0
 11
597.8565441485514
 21
79.52731581017207
 31
0.0
 11
597.7935973074145
 21
79.38315367752901
 31
0.0
 11
597.2633020005499
 21
78.61780871803029
 31
0.0
 11
596.3660347489206
 21
77.43614567178594
 31
0.0
 11
595.6201586226828
 21
76.52082595983498
 31
0.0
  0
LWPOLYLINE
  5
13D
330
1F
100
AcDbEntity
  8
IMAGE
 62
     7
100
AcDbPolyline
 90
        7
 70
     0
 43
0.0
 10
595.620159
 20
76.520826
 10
595.209252
 20
76.062665
 10
595.209252
 20
75.885623
 10
595.209252
 20
75.708583
 10
595.615649
 20
75.792571
 10
596.022046
 20
75.876561
 10
601.338976
 20
75.893989
  0
SPLINE
  5
13E
330
1F
100
AcDbEntity
  8
IMAGE
 62
     7
100
AcDbSpline
210
0.0
220
0.0
230
1.0
 70
  1064
 71
     3
 72
    22
 73
    18
 74
    16
 42
0.000000001
 43
0.0000001
 44
0.0000000001
 40
0.0
 40
0.0
 40
0.0
 40
0.0
 40
2.692148640085263
 40
4.639049161014372
 40
5.419613692388833
 40
5.770249843713104
 40
6.586852803361257
 40
7.69342049206324
 40
8.927164592089262
 40
10.07706698214444
 40
10.89434120424363
 40
11.52546492051461
 40
12.18760890649554
 40
12.73811898409723
 40
13.55630356297535
 40
14.91941498016643
 40
16.53236522582337
 40
16.53236522582337
 40
16.53236522582337
 40
16.53236522582337
 10
601.338975652933
 20
75.89398947213783
 30
0.0
 10
602.2365293498585
 20
75.89733445274076
 30
0.0
 10
603.7831734179797
 20
75.90309844705692
 30
0.0
 10
605.5880854801508
 20
75.93491182869775
 30
0.0
 10
606.6159568840072
 20
75.94854155872751
 30
0.0
 10
607.2594450348554
 20
76.03989869054564
 30
0.0
 10
608.0180689057678
 20
76.06331865649597
 30
0.0
 10
609.0689304662499
 20
76.10934122530269
 30
0.0
 10
610.2317782054116
 20
76.14959237249147
 30
0.0
 10
611.2976489574266
 20
76.19909629244987
 30
0.0
 10
612.1618244071735
 20
76.2569864763428
 30
0.0
 10
612.8638184545728
 20
76.3037364071686
 30
0.0
 10
613.4783595958189
 20
76.32186524855035
 30
0.0
 10
614.1553701435057
 20
76.31458927385529
 30
0.0
 10
615.0653651208677
 20
76.28032205480494
 30
0.0
 10
616.3298467795709
 20
76.25311167966287
 30
0.0
 10
617.3216102333174
 20
76.23071902648346
 30
0.0
 10
617.8591209732066
 20
76.21858277410081
 30
0.0
 11
601.338975652933
 21
75.89398947213783
 31
0.0
 11
604.0310689337139
 21
75.91125411482764
 31
0.0
 11
605.9777608416623
 21
75.93975418363678
 31
0.0
 11
606.757603223043
 21
75.97332273800365
 31
0.0
 11
607.1058498620845
 21
76.01418823704407
 31
0.0
 11
607.921062737275
 21
76.06181555934768
 31
0.0
 11
609.0267521943085
 21
76.10589360699095
 31
0.0
 11
610.2595939610146
 21
76.15307074779065
 31
0.0
 11
611.4081440948185
 21
76.20882105535756
 31
0.0
 11
612.2237461767944
 21
76.26107426563522
 31
0.0
 11
612.8537139134696
 21
76.2992553602765
 31
0.0
 11
613.5155893259848
 21
76.31811262621136
 31
0.0
 11
614.0660806123807
 21
76.31356409422355
 31
0.0
 11
614.8838905252094
 21
76.28880623500504
 31
0.0
 11
616.2465747697663
 21
76.25468314439209
 31
0.0
 11
617.8591209732066
 21
76.21858277410081
 31
0.0
  0
LWPOLYLINE
  5
13F
330
1F
100
AcDbEntity
  8
IMAGE
 62
     7
100
AcDbPolyline
 90
        3
 70
     0
 43
0.0
 10
617.859121
 20
76.218583
 10
620.839366
 20
76.155625
 10
623.006815
 20
75.995876
  0
SPLINE
  5
140
330
1F
100
AcDbEntity
  8
IMAGE
 62
     7
100
AcDbSpline
210
0.0
220
0.0
230
1.0
 70
  1064
 71
     3
 72
    10
 73
     6
 74
     4
 42
0.000000001
 43
0.0000001
 44
0.0000000001
 40
0.0
 40
0.0
 40
0.0
 40
0.0
 40
1.823862618920499
 40
2.916583947450885
 40
3.383068567836004
 40
3.383068567836004
 40
3.383068567836004
 40
3.383068567836004
 10
623.0068154205095
 20
75.99587579993741
 30
0.0
 10
623.6088802671215
 20
75.93757127535699
 30
0.0
 10
624.5716570951221
 20
75.84433506409255
 30
0.0
 10
625.7195348693344
 20
75.77548109620739
 30
0.0
 10
626.1901191158329
 20
75.54824751417837
 30
0.0
 10
626.3309089285832
 20
75.48026356932152
 30
0.0
 11
623.0068154205095
 21
75.99587579993741
 31
0.0
 11
624.8234989144328
 21
75.83420967608257
 31
0.0
 11
625.9033071819856
 21
75.66671637129173
 31
0.0
 11
626.3309089285832
 21
75.48026356932152
 31
0.0
  0
LWPOLYLINE
  5
141
330
1F
100
AcDbEntity
  8
IMAGE
 62
     7
100
AcDbPolyline
 90
        3
 70
     0
 43
0.0
 10
626.330909
 20
75.480264
 10
626.403828
 20
75.367664
 10
625.792486
 20
74.671338
  0
SPLINE
  5
142
330
1F
100
AcDbEntity
  8
IMAGE
 62
     7
100
AcDbSpline
210
0.0
220
0.0
230
1.0
 70
  1064
 71
     3
 72
    46
 73
    42
 74
    40
 42
0.000000001
 43
0.0000001
 44
0.0000000001
 40
0.0
 40
0.0
 40
0.0
 40
0.0
 40
0.5776537292737067
 40
1.202928940359068
 40
1.742249264340958
 40
2.336027139758152
 40
3.102551614467785
 40
3.87614685553118
 40
4.662785600437234
 40
5.463327189723648
 40
6.104474801364958
 40
6.764695217107111
 40
7.615280317948562
 40
8.472125544042619
 40
9.303223488440747
 40
10.08630645448654
 40
10.65187236563604
 40
11.14689420360737
 40
11.74507709510613
 40
12.3169995979084
 40
13.0119385640711
 40
13.93306942542026
 40
14.88129505301464
 40
15.84450745961272
 40
16.80473024064536
 40
17.55408316035924
 40
18.59290096950321
 40
19.91859674530442
 40
21.65911592486399
 40
22.08993622543616
 40
22.57395122173862
 40
23.00657793372319
 40
23.51774186345764
 40
24.20812606339686
 40
24.92868004222884
 40
26.63816219050767
 40
27.97423729972927
 40
28.85365246020464
 40
29.22562657459558
 40
29.66603563370518
 40
30.08096860965086
 40
30.08096860965086
 40
30.08096860965086
 40
30.08096860965086
 10
625.792486086103
 20
74.67133837070244
 30
0.0
 10
625.6614246504107
 20
74.5302365613757
 30
0.0
 10
625.3884971404343
 20
74.23640058079688
 30
0.0
 10
624.9660426181813
 20
73.83704822856176
 30
0.0
 10
624.5150976735772
 20
73.46235040284513
 30
0.0
 10
624.0161376526228
 20
73.07241985022944
 30
0.0
 10
623.4730833445426
 20
72.6128027125176
 30
0.0
 10
622.8875256615609
 20
72.10424634805035
 30
0.0
 10
622.2988567300264
 20
71.58200005189536
 30
0.0
 10
621.7397989069705
 20
71.09293954382125
 30
0.0
 10
621.2091524276918
 20
70.6354379816961
 30
0.0
 10
620.6681952635984
 20
70.16435453474146
 30
0.0
 10
620.0782354370153
 20
69.6401100956882
 30
0.0
 10
619.4496501975898
 20
69.07363205431619
 30
0.0
 10
618.8382662182903
 20
68.52168430469393
 30
0.0
 10
618.2962805953888
 20
68.03774487002713
 30
0.0
 10
617.8329912442093
 20
67.63395309995381
 30
0.0
 10
617.4168299205885
 20
67.26989595778144
 30
0.0
 10
617.0044893379688
 20
66.89829377531102
 30
0.0
 10
616.5504141048846
 20
66.47364640957932
 30
0.0
 10
616.0062146946099
 20
65.98796021183222
 30
0.0
 10
615.3546734302313
 20
65.4345820032109
 30
0.0
 10
614.625635210752
 20
64.83454418853755
 30
0.0
 10
613.8792668676408
 20
64.23519415269865
 30
0.0
 10
613.1868938712036
 20
63.67450459487036
 30
0.0
 10
612.4727953143264
 20
63.10059705288098
 30
0.0
 10
611.672223354337
 20
62.43989600167543
 30
0.0
 10
610.6310023587735
 20
61.55197921725643
 30
0.0
 10
609.7574269040318
 20
60.78008257700955
 30
0.0
 10
609.0826192426125
 20
60.20728117731315
 30
0.0
 10
608.7337773862494
 20
59.92421934566893
 30
0.0
 10
608.3546425808529
 20
59.63647571326833
 30
0.0
 10
607.9291101478618
 20
59.29627164736584
 30
0.0
 10
607.4424430005489
 20
58.87938556607212
 30
0.0
 10
606.667659043285
 20
58.18536112906851
 30
0.0
 10
605.737525101268
 20
57.34253849646103
 30
0.0
 10
604.7534483046655
 20
56.47938003431859
 30
0.0
 10
604.0720205185671
 20
55.95049554875055
 30
0.0
 10
603.6272943338199
 20
55.60350532493897
 30
0.0
 10
603.3251461000009
 20
55.3268943141095
 30
0.0
 10
603.1276708532631
 20
55.12120765947651
 30
0.0
 10
603.031874097759
 20
55.02142748707605
 30
0.0
 11
625.792486086103
 21
74.67133837070244
 31
0.0
 11
625.3949770315597
 21
74.2522078629845
 31
0.0
 11
624.9405075791401
 21
73.82275867342275
 31
0.0
 11
624.5274702962791
 21
73.47596390006714
 31
0.0
 11
624.0636301520426
 21
73.10525581284813
 31
0.0
 11
623.4759612753282
 21
72.61311247837111
 31
0.0
 11
622.8916936351517
 21
72.10608099844265
 31
0.0
 11
622.3017259205419
 21
71.5857555130919
 31
0.0
 11
621.6991100471553
 21
71.058763155159
 31
0.0
 11
621.2143085541595
 21
70.63919460020946
 31
0.0
 11
620.7166850789355
 21
70.2053030535429
 31
0.0
 11
620.0804551476607
 21
69.64076209991461
 31
0.0
 11
619.4433603461247
 21
69.06779268071674
 31
0.0
 11
618.825862091066
 21
68.51153761495794
 31
0.0
 11
618.2409953211926
 21
67.9908171590424
 31
0.0
 11
617.8153854154002
 21
67.61836446681724
 31
0.0
 11
617.4434405424726
 21
67.29170924862635
 31
0.0
 11
616.9992606496431
 21
66.89105104705317
 31
0.0
 11
616.5790077217334
 21
66.50312988780178
 31
0.0
 11
616.0608712591134
 21
66.04001567640805
 31
0.0
 11
615.3600621237148
 21
65.442229243414
 31
0.0
 11
614.6283017964938
 21
64.83918806378178
 31
0.0
 11
613.878906124563
 21
64.23405645238162
 31
0.0
 11
613.1318490302692
 21
63.63078745178614
 31
0.0
 11
612.5488609491113
 21
63.15998526879261
 31
0.0
 11
611.7475557701669
 21
62.49888584299378
 31
0.0
 11
610.7384214483791
 21
61.6391665803463
 31
0.0
 11
609.4242221158236
 21
60.49798862370442
 31
0.0
 11
609.0951725023426
 21
60.21990143728056
 31
0.0
 11
608.7187743514651
 21
59.91560725616361
 31
0.0
 11
608.3765165825386
 21
59.65098395497488
 31
0.0
 11
607.9773442226137
 21
59.33168786960329
 31
0.0
 11
607.4517372952257
 21
58.8840633602124
 31
0.0
 11
606.9134867594128
 21
58.40501806265937
 31
0.0
 11
605.6417073261849
 21
57.26269311392425
 31
0.0
 11
604.628772853656
 21
56.39145235968695
 31
0.0
 11
603.9386822243748
 21
55.84634140964809
 31
0.0
 11
603.6481258596912
 21
55.61408779671873
 31
0.0
 11
603.3223467359635
 21
55.317729733071
 31
0.0
 11
603.031874097759
 21
55.02142748707605
 31
0.0
  0
LWPOLYLINE
  5
143
330
1F
100
AcDbEntity
  8
IMAGE
 62
     7
100
AcDbPolyline
 90
        7
 70
     0
 43
0.0
 10
603.031874
 20
55.021427
 10
602.578585
 20
54.521632
 10
602.578585
 20
54.198337
 10
602.578585
 20
53.875042
 10
602.8011
 20
53.673668
 10
603.023614
 20
53.472296
 10
603.586801
 20
53.399184
  0
SPLINE
  5
144
330
1F
100
AcDbEntity
  8
IMAGE
 62
     7
100
AcDbSpline
210
0.0
220
0.0
230
1.0
 70
  1064
 71
     3
 72
    22
 73
    18
 74
    16
 42
0.000000001
 43
0.0000001
 44
0.0000000001
 40
0.0
 40
0.0
 40
0.0
 40
0.0
 40
0.369132969760696
 40
0.7910710993737569
 40
1.174585394509924
 40
1.695576729061547
 40
2.478938394879656
 40
3.355583537459858
 40
4.261623338181942
 40
5.121849969037588
 40
5.750125890528563
 40
6.302598954851821
 40
6.964177835424828
 40
7.591843228133913
 40
8.399453587549349
 40
9.532915597488044
 40
10.74700306567122
 40
10.74700306567122
 40
10.74700306567122
 40
10.74700306567122
 10
603.586800764053
 20
53.39918357317919
 30
0.0
 10
603.7086381741984
 20
53.3819904265293
 30
0.0
 10
603.9697420632688
 20
53.34514462153162
 30
0.0
 10
604.3563913880298
 20
53.28318302156566
 30
0.0
 10
604.7905531587597
 20
53.19912827226688
 30
0.0
 10
605.3480107517236
 20
53.12137299445617
 30
0.0
 10
606.0709743442325
 20
53.04440935768418
 30
0.0
 10
606.9231918830815
 20
52.97091559176609
 30
0.0
 10
607.8012936909967
 20
52.90002225936446
 30
0.0
 10
608.5962394435173
 20
52.82770519203284
 30
0.0
 10
609.2725466791425
 20
52.7538109509231
 30
0.0
 10
609.8831322941899
 20
52.68799052722623
 30
0.0
 10
610.4949815907066
 20
52.63677755613543
 30
0.0
 10
611.1926260713824
 20
52.59392326044136
 30
0.0
 10
612.0466793246878
 20
52.53226609785531
 30
0.0
 10
613.0942158116535
 20
52.43799446805381
 30
0.0
 10
613.8728221205097
 20
52.3598710790656
 30
0.0
 10
614.2754957046194
 20
52.31946782945295
 30
0.0
 11
603.586800764053
 21
53.39918357317919
 31
0.0
 11
603.9521606707368
 21
53.34654054940253
 31
0.0
 11
604.3686270989618
 21
53.27880946803761
 31
0.0
 11
604.7460366414392
 21
53.21065338378385
 31
0.0
 11
605.2616085255995
 21
53.13570271373158
 31
0.0
 11
606.0402854101217
 21
53.05015852056692
 31
0.0
 11
606.9134876694832
 21
52.97254073745361
 31
0.0
 11
607.8163915939726
 21
52.89722391573338
 31
0.0
 11
608.6729359242615
 21
52.81771500627539
 31
0.0
 11
609.2976838003317
 21
52.75122647439839
 31
0.0
 11
609.8471724924751
 21
52.69387959994793
 31
0.0
 11
610.5064156779622
 21
52.63833648508125
 31
0.0
 11
611.132693382418
 21
52.59662219369044
 31
0.0
 11
611.938181548396
 21
52.53811315930629
 31
0.0
 11
613.0672616355116
 21
52.4385426573834
 31
0.0
 11
614.2754957046194
 21
52.31946782945295
 31
0.0
  0
LWPOLYLINE
  5
145
330
1F
100
AcDbEntity
  8
IMAGE
 62
     7
100
AcDbPolyline
 90
        3
 70
     0
 43
0.0
 10
614.275496
 20
52.319468
 10
616.396088
 20
52.098299
 10
618.184236
 20
51.766925
  0
SPLINE
  5
146
330
1F
100
AcDbEntity
  8
IMAGE
 62
     7
100
AcDbSpline
210
0.0
220
0.0
230
1.0
 70
  1064
 71
     3
 72
    13
 73
     9
 74
     7
 42
0.000000001
 43
0.0000001
 44
0.0000000001
 40
0.0
 40
0.0
 40
0.0
 40
0.0
 40
0.9784743233613317
 40
1.79583893462736
 40
2.275938737489599
 40
2.560334604082593
 40
2.862222836138104
 40
3.116484858536217
 40
3.116484858536217
 40
3.116484858536217
 40
3.116484858536217
 10
618.1842360488803
 20
51.76692494096073
 30
0.0
 10
618.5045931868245
 20
51.70546628110981
 30
0.0
 10
619.0925593782414
 20
51.59266837564086
 30
0.0
 10
619.833576021334
 20
51.43116992837766
 30
0.0
 10
620.3458344160856
 20
51.30279601812268
 30
0.0
 10
620.6793571814821
 20
51.17916147646515
 30
0.0
 10
620.9469712730036
 20
51.09586918996953
 30
0.0
 10
621.1257125843607
 20
51.04667418165727
 30
0.0
 10
621.207429938525
 20
51.02418309726918
 30
0.0
 11
618.1842360488803
 21
51.76692494096073
 31
0.0
 11
619.1443385063409
 21
51.57820485020323
 31
0.0
 11
619.9424817972695
 21
51.40198852038171
 31
0.0
 11
620.4058714566454
 21
51.27642640709982
 31
0.0
 11
620.6746616669568
 21
51.18351337369799
 31
0.0
 11
620.962627667852
 21
51.09289280769858
 31
0.0
 11
621.207429938525
 21
51.02418309726918
 31
0.0
  0
LWPOLYLINE
  5
147
330
1F
100
AcDbEntity
  8
IMAGE
 62
     7
100
AcDbPolyline
 90
        3
 70
     0
 43
0.0
 10
621.20743
 20
51.024183
 10
621.575494
 20
50.931065
 10
621.666352
 20
50.787762
  0
SPLINE
  5
148
330
1F
100
AcDbEntity
  8
IMAGE
 62
     7
100
AcDbSpline
210
0.0
220
0.0
230
1.0
 70
  1064
 71
     3
 72
    10
 73
     6
 74
     4
 42
0.000000001
 43
0.0000001
 44
0.0000000001
 40
0.0
 40
0.0
 40
0.0
 40
0.0
 40
0.1148289070843519
 40
0.2568573323336731
 40
0.3985400666491438
 40
0.3985400666491438
 40
0.3985400666491438
 40
0.3985400666491438
 10
621.6663523655377
 20
50.78776166514677
 30
0.0
 10
621.6828911908891
 20
50.75315029822398
 30
0.0
 10
621.7198863924245
 20
50.67572917141939
 30
0.0
 10
621.7491557942435
 20
50.54487658136505
 30
0.0
 10
621.7556358600892
 20
50.45052282607823
 30
0.0
 10
621.758871945159
 20
50.40340343161213
 30
0.0
 11
621.6663523655377
 21
50.78776166514677
 31
0.0
 11
621.7123452013568
 21
50.68254599637304
 31
0.0
 11
621.7455834001591
 21
50.54446161738983
 31
0.0
 11
621.758871945159
 21
50.40340343161213
 31
0.0
  0
LWPOLYLINE
  5
149
330
1F
100
AcDbEntity
  8
IMAGE
 62
     7
100
AcDbPolyline
 90
        3
 70
     0
 43
0.0
 10
621.758872
 20
50.403403
 10
621.760557
 20
50.162348
 10
621.448349
 20
50.000899
  0
SPLINE
  5
14A
330
1F
100
AcDbEntity
  8
IMAGE
 62
     7
100
AcDbSpline
210
0.0
220
0.0
230
1.0
 70
  1064
 71
     3
 72
    10
 73
     6
 74
     4
 42
0.000000001
 43
0.0000001
 44
0.0000000001
 40
0.0
 40
0.0
 40
0.0
 40
0.0
 40
0.2346339811487619
 40
0.5156171363368786
 40
0.7852977777023902
 40
0.7852977777023902
 40
0.7852977777023902
 40
0.7852977777023902
 10
621.4483486353346
 20
50.00089930385876
 30
0.0
 10
621.3817932885523
 20
49.95968565089972
 30
0.0
 10
621.2355353716566
 20
49.86911707420558
 30
0.0
 10
621.035344238702
 20
49.69859482107771
 30
0.0
 10
620.9103167178016
 20
49.56415434631125
 30
0.0
 10
620.84908606811
 20
49.49831382131685
 30
0.0
 11
621.4483486353346
 21
50.00089930385876
 31
0.0
 11
621.2517503682583
 21
49.87282812641311
 31
0.0
 11
621.0364595579942
 21
49.6922695472336
 31
0.0
 11
620.84908606811
 21
49.49831382131685
 31
0.0
  0
LWPOLYLINE
  5
14B
330
1F
100
AcDbEntity
  8
IMAGE
 62
     7
100
AcDbPolyline
 90
        3
 70
     0
 43
0.0
 10
620.849086
 20
49.498314
 10
620.56204
 20
49.157178
 10
620.681111
 20
49.01371
  0
SPLINE
  5
14C
330
1F
100
AcDbEntity
  8
IMAGE
 62
     7
100
AcDbSpline
210
0.0
220
0.0
230
1.0
 70
  1064
 71
     3
 72
    16
 73
    12
 74
    10
 42
0.000000001
 43
0.0000001
 44
0.0000000001
 40
0.0
 40
0.0
 40
0.0
 40
0.0
 40
0.1317823410809084
 40
0.305928914633614
 40
0.4899174990550365
 40
0.6646802362188682
 40
0.8135812073439075
 40
0.9091793218520552
 40
0.985757905283513
 40
1.084289956715153
 40
1.191136441432169
 40
1.191136441432169
 40
1.191136441432169
 40
1.191136441432169
 10
620.6811107293503
 20
49.01371042031703
 30
0.0
 10
620.7145317085663
 20
48.98494681563734
 30
0.0
 10
620.792117550597
 20
48.91817293464214
 30
0.0
 10
620.9428472375264
 20
48.85010650319298
 30
0.0
 10
621.1134952220673
 20
48.80087712979682
 30
0.0
 10
621.2766742281199
 20
48.75789921006816
 30
0.0
 10
621.4088364742611
 20
48.70611030289362
 30
0.0
 10
621.4910630881395
 20
48.63675297757668
 30
0.0
 10
621.5544704519491
 20
48.57105256712335
 30
0.0
 10
621.6467061183375
 20
48.54017487875096
 30
0.0
 10
621.7147485748009
 20
48.53426742046967
 30
0.0
 10
621.7501470999873
 20
48.53119411416025
 30
0.0
 11
620.6811107293503
 21
49.01371042031703
 31
0.0
 11
620.7844422489859
 21
48.93192299786982
 31
0.0
 11
620.940883051813
 21
48.85541610738953
 31
0.0
 11
621.1165639568674
 21
48.80075333398135
 31
0.0
 11
621.2844009649224
 21
48.75204242115748
 31
0.0
 11
621.4202769063392
 21
48.69113899148324
 31
0.0
 11
621.4947731478921
 21
48.63122814528665
 31
0.0
 11
621.5524394570621
 21
48.58084088273858
 31
0.0
 11
621.6441836566805
 21
48.5449025049831
 31
0.0
 11
621.7501470999873
 21
48.53119411416025
 31
0.0
  0
LWPOLYLINE
  5
14D
330
1F
100
AcDbEntity
  8
IMAGE
 62
     7
100
AcDbPolyline
 90
        3
 70
     0
 43
0.0
 10
621.750147
 20
48.531194
 10
621.943695
 20
48.531194
 10
622.629297
 20
48.070611
  0
SPLINE
  5
14E
330
1F
100
AcDbEntity
  8
IMAGE
 62
     7
100
AcDbSpline
210
0.0
220
0.0
230
1.0
 70
  1064
 71
     3
 72
    13
 73
     9
 74
     7
 42
0.000000001
 43
0.0000001
 44
0.0000000001
 40
0.0
 40
0.0
 40
0.0
 40
0.0
 40
0.4565980694343458
 40
0.8597449516816078
 40
1.122293147843988
 40
1.290257436936801
 40
1.448269421144846
 40
1.567300244937794
 40
1.567300244937794
 40
1.567300244937794
 40
1.567300244937794
 10
622.6292966695811
 20
48.07061050526368
 30
0.0
 10
622.7561630583632
 20
47.98653688357576
 30
0.0
 10
622.9950443515509
 20
47.82823163295275
 30
0.0
 10
623.308143611107
 20
47.62340143051729
 30
0.0
 10
623.5484765261635
 20
47.48349016862626
 30
0.0
 10
623.7125161572642
 20
47.37626965318216
 30
0.0
 10
623.8253126723325
 20
47.27672401816525
 30
0.0
 10
623.8732952203743
 20
47.19735665157101
 30
0.0
 10
623.8939108149904
 20
47.16325663974917
 30
0.0
 11
622.6292966695811
 21
48.07061050526368
 31
0.0
 11
623.0101699400988
 21
47.81878249090398
 31
0.0
 11
623.3496398599544
 21
47.60132540966985
 31
0.0
 11
623.5742136919179
 21
47.46531750804137
 31
0.0
 11
623.7131040899415
 21
47.37086402876557
 31
0.0
 11
623.8279586179509
 21
47.26234571441685
 31
0.0
 11
623.8939108149904
 21
47.16325663974917
 31
0.0
  0
LWPOLYLINE
  5
14F
330
1F
100
AcDbEntity
  8
IMAGE
 62
     7
100
AcDbPolyline
 90
        3
 70
     0
 43
0.0
 10
623.893911
 20
47.163257
 10
623.954293
 20
47.005905
 10
623.754831
 20
46.785507
  0
SPLINE
  5
150
330
1F
100
AcDbEntity
  8
IMAGE
 62
     7
100
AcDbSpline
210
0.0
220
0.0
230
1.0
 70
  1064
 71
     3
 72
    10
 73
     6
 74
     4
 42
0.000000001
 43
0.0000001
 44
0.0000000001
 40
0.0
 40
0.0
 40
0.0
 40
0.0
 40
0.51980126783231
 40
1.369324878464231
 40
2.536496068424652
 40
2.536496068424652
 40
2.536496068424652
 40
2.536496068424652
 10
623.7548305156046
 20
46.78550733764622
 30
0.0
 10
623.6165938259478
 20
46.68014960266931
 30
0.0
 10
623.2524336170798
 20
46.40260320836333
 30
0.0
 10
622.4630398811144
 20
46.07971287472407
 30
0.0
 10
621.8324286151649
 20
45.85062747259813
 30
0.0
 10
621.4674595075614
 20
45.71804326534806
 30
0.0
 11
623.7548305156046
 21
46.78550733764622
 31
0.0
 11
623.3311872720022
 21
46.48431012618806
 31
0.0
 11
622.561366282793
 21
46.12505254506562
 31
0.0
 11
621.4674595075614
 21
45.71804326534806
 31
0.0
  0
LWPOLYLINE
  5
151
330
1F
100
AcDbEntity
  8
IMAGE
 62
     7
100
AcDbPolyline
 90
        5
 70
     0
 43
0.0
 10
621.46746
 20
45.718043
 10
620.529124
 20
45.396806
 10
620.279015
 20
45.094574
 10
620.028914
 20
44.792341
 10
620.069054
 20
43.816988
  0
SPLINE
  5
152
330
1F
100
AcDbEntity
  8
IMAGE
 62
     7
100
AcDbSpline
210
0.0
220
0.0
230
1.0
 70
  1064
 71
     3
 72
    10
 73
     6
 74
     4
 42
0.000000001
 43
0.0000001
 44
0.0000000001
 40
0.0
 40
0.0
 40
0.0
 40
0.0
 40
0.5582195499724747
 40
1.083937624848651
 40
1.464415922144048
 40
1.464415922144048
 40
1.464415922144048
 40
1.464415922144048
 10
620.069054088724
 20
43.81698805232526
 30
0.0
 10
620.0737596352313
 20
43.63098981096088
 30
0.0
 10
620.0828967550352
 20
43.26982278988383
 30
0.0
 10
620.0773299392952
 20
42.78124824893364
 30
0.0
 10
620.0503140679714
 20
42.48031095683031
 30
0.0
 10
620.0389711040876
 20
42.35395853255633
 30
0.0
 11
620.069054088724
 21
43.81698805232526
 31
0.0
 11
620.0796545890429
 21
43.25886916233456
 31
0.0
 11
620.0688447725261
 21
42.73326223494643
 31
0.0
 11
620.0389711040876
 21
42.35395853255633
 31
0.0
  0
LWPOLYLINE
  5
153
330
1F
100
AcDbEntity
  8
IMAGE
 62
     7
100
AcDbPolyline
 90
        5
 70
     0
 43
0.0
 10
620.038971
 20
42.353959
 10
619.968749
 20
41.866282
 10
619.59127
 20
41.876707
 10
619.213799
 20
41.887133
 10
618.31448
 20
42.2831
  0
SPLINE
  5
154
330
1F
100
AcDbEntity
  8
IMAGE
 62
     7
100
AcDbSpline
210
0.0
220
0.0
230
1.0
 70
  1064
 71
     3
 72
    25
 73
    21
 74
    19
 42
0.000000001
 43
0.0000001
 44
0.0000000001
 40
0.0
 40
0.0
 40
0.0
 40
0.0
 40
0.5172160432104692
 40
0.9291352429048165
 40
1.148211594915911
 40
1.628384267468014
 40
2.532926239448208
 40
4.066366206390994
 40
5.052159465413438
 40
5.772129249519933
 40
6.070680032823988
 40
6.411835398880116
 40
7.473354332149593
 40
9.495816111535
 40
11.15514617895388
 40
13.3473903693692
 40
14.95982213100194
 40
16.45499624712622
 40
18.80584054851335
 40
20.25517002564324
 40
20.25517002564324
 40
20.25517002564324
 40
20.25517002564324
 10
618.3144795644322
 20
42.28310014585177
 30
0.0
 10
618.1557569451314
 20
42.35119773770155
 30
0.0
 10
617.8706250715663
 20
42.47352935013925
 30
0.0
 10
617.5141060735187
 20
42.60541657392909
 30
0.0
 10
617.1544842300706
 20
42.72166991589766
 30
0.0
 10
616.6227619315431
 20
42.53248282889975
 30
0.0
 10
615.7398079642871
 20
42.17074246529828
 30
0.0
 10
614.7095708494155
 20
41.65865780195912
 30
0.0
 10
613.7385747068942
 20
41.19072096020417
 30
0.0
 10
613.1369067505336
 20
40.89928697448806
 30
0.0
 10
612.7201379307689
 20
40.72101277209095
 30
0.0
 10
612.189818873625
 20
40.51958619862378
 30
0.0
 10
611.1638339959154
 20
40.01573074547159
 30
0.0
 10
609.7403848877601
 20
39.3279115744981
 30
0.0
 10
607.9322168407953
 20
38.57484959847289
 30
0.0
 10
606.2354766532567
 20
37.91218928409141
 30
0.0
 10
604.5676082442965
 20
37.32907939154035
 30
0.0
 10
602.8407448336153
 20
36.7560059050958
 30
0.0
 10
601.173728617916
 20
36.17544942403329
 30
0.0
 10
599.9816486973283
 20
35.74704544442061
 30
0.0
 10
599.5270072338853
 20
35.5836585700407
 30
0.0
 11
618.3144795644322
 21
42.28310014585177
 31
0.0
 11
617.8372692722143
 21
42.48255633742167
 31
0.0
 11
617.4506941071224
 21
42.62481338930687
 31
0.0
 11
617.2384441455076
 21
42.67907573172773
 31
0.0
 11
616.7682811353097
 21
42.58154348420167
 31
0.0
 11
615.9306544389606
 21
42.24010872229684
 31
0.0
 11
614.5458469890677
 21
41.58151441702325
 31
0.0
 11
613.6586496666991
 21
41.15178280227273
 31
0.0
 11
613.0071787860046
 21
40.8452829138006
 31
0.0
 11
612.7324716011419
 21
40.7283704132017
 31
0.0
 11
612.4153869869049
 21
40.60249614576378
 31
0.0
 11
611.4514792216376
 21
40.15785666736929
 31
0.0
 11
609.6228252680478
 21
39.29392590214831
 31
0.0
 11
608.0943255852083
 21
38.64812020985396
 31
0.0
 11
606.0501590675273
 21
37.85608622169331
 31
0.0
 11
604.5293148971091
 21
37.32039116363591
 31
0.0
 11
603.112354355718
 21
36.84314022160562
 31
0.0
 11
600.8915489321812
 21
36.07210701858924
 31
0.0
 11
599.5270072338853
 21
35.5836585700407
 31
0.0
  0
LWPOLYLINE
  5
155
330
1F
100
AcDbEntity
  8
IMAGE
 62
     7
100
AcDbPolyline
 90
        3
 70
     0
 43
0.0
 10
599.527007
 20
35.583659
 10
599.347277
 20
35.510914
 10
599.212069
 20
35.16649
  0
SPLINE
  5
156
330
1F
100
AcDbEntity
  8
IMAGE
 62
     7
100
AcDbSpline
210
0.0
220
0.0
230
1.0
 70
  1064
 71
     3
 72
    22
 73
    18
 74
    16
 42
0.000000001
 43
0.0000001
 44
0.0000000001
 40
0.0
 40
0.0
 40
0.0
 40
0.0
 40
0.2757143538292768
 40
0.6429285624370529
 40
1.022188286163892
 40
1.553728919643245
 40
2.320134666415505
 40
3.15548314385621
 40
4.705679291218713
 40
5.85992025218416
 40
6.85189647553985
 40
7.409359421783698
 40
8.135228884179348
 40
8.872383117948255
 40
10.86022935485438
 40
12.22879525876591
 40
13.12982730995146
 40
13.12982730995146
 40
13.12982730995146
 40
13.12982730995146
 10
599.2120688690691
 20
35.16648956744703
 30
0.0
 10
599.1774839063673
 20
35.08133884310641
 30
0.0
 10
599.0968364535131
 20
34.88277887685713
 30
0.0
 10
598.9626927484686
 20
34.56954653754673
 30
0.0
 10
598.7916039325559
 20
34.17940806511811
 30
0.0
 10
598.564119402
 20
33.66871069643505
 30
0.0
 10
598.2765251083142
 20
33.01836673301207
 30
0.0
 10
597.8524751438005
 20
32.05708126209031
 30
0.0
 10
597.3705589589899
 20
30.9801123253478
 30
0.0
 10
596.8284939622952
 20
29.87271112746938
 30
0.0
 10
596.3732302037347
 20
29.09435481743634
 30
0.0
 10
595.977603442647
 20
28.4473343292339
 30
0.0
 10
595.6336662659039
 20
27.86825632449236
 30
0.0
 10
595.0511937968968
 20
26.87627879840313
 30
0.0
 10
594.354962927596
 20
25.70341846069052
 30
0.0
 10
593.6113354497745
 20
24.4925946576089
 30
0.0
 10
593.1520611902594
 20
23.8909592635725
 30
0.0
 10
592.9697289727058
 20
23.65210957130122
 30
0.0
 11
599.2120688690691
 21
35.16648956744703
 31
0.0
 11
599.1076288836548
 21
34.91132159462489
 31
0.0
 11
598.9637968032195
 21
34.57344793829596
 31
0.0
 11
598.81171159745
 21
34.22601732906958
 31
0.0
 11
598.5961535298375
 21
33.74014680668034
 31
0.0
 11
598.2859208358359
 21
33.03933767128179
 31
0.0
 11
597.9481776229346
 21
32.27531110047313
 31
0.0
 11
597.3073193768314
 21
30.86378398288061
 31
0.0
 11
596.7912029671996
 21
29.83136156561176
 31
0.0
 11
596.2965763538875
 21
28.97150033197786
 31
0.0
 11
596.0077703579894
 21
28.4946816733998
 31
0.0
 11
595.636103966612
 21
27.87118302066745
 31
0.0
 11
595.262041056447
 21
27.23598753610995
 31
0.0
 11
594.2442371004267
 21
25.52847245017615
 31
0.0
 11
593.5068191687258
 21
24.37556853945548
 31
0.0
 11
592.9697289727058
 21
23.65210957130122
 31
0.0
  0
LWPOLYLINE
  5
157
330
1F
100
AcDbEntity
  8
IMAGE
 62
     7
100
AcDbPolyline
 90
        5
 70
     0
 43
0.0
 10
592.969729
 20
23.65211
 10
592.506968
 20
23.102663
 10
592.874825
 20
22.243267
 10
593.242681
 20
21.38387
 10
593.458817
 20
20.245955
  0
SPLINE
  5
158
330
1F
100
AcDbEntity
  8
IMAGE
 62
     7
100
AcDbSpline
210
0.0
220
0.0
230
1.0
 70
  1064
 71
     3
 72
    10
 73
     6
 74
     4
 42
0.000000001
 43
0.0000001
 44
0.0000000001
 40
0.0
 40
0.0
 40
0.0
 40
0.0
 40
0.6817225294540608
 40
1.355654429059496
 40
1.876044606286817
 40
1.876044606286817
 40
1.876044606286817
 40
1.876044606286817
 10
593.4588172007635
 20
20.24595531629584
 30
0.0
 10
593.4998818589488
 20
20.0224563529768
 30
0.0
 10
593.5815418941417
 20
19.57801254127487
 30
0.0
 10
593.6859267268104
 20
18.96137672506826
 30
0.0
 10
593.7430908852166
 20
18.56738515795552
 30
0.0
 10
593.7679984600667
 20
18.39571509892121
 30
0.0
 11
593.4588172007635
 21
20.24595531629584
 31
0.0
 11
593.5804356755339
 21
19.57516879752867
 31
0.0
 11
593.6915121978493
 21
18.91045366192839
 31
0.0
 11
593.7679984600667
 21
18.39571509892121
 31
0.0
  0
LWPOLYLINE
  5
159
330
1F
100
AcDbEntity
  8
IMAGE
 62
     7
100
AcDbPolyline
 90
        3
 70
     0
 43
0.0
 10
593.767998
 20
18.395715
 10
593.861045
 20
17.683377
 10
593.776521
 20
16.553381
  0
SPLINE
  5
15A
330
1F
100
AcDbEntity
  8
IMAGE
 62
     7
100
AcDbSpline
210
0.0
220
0.0
230
1.0
 70
  1064
 71
     3
 72
    13
 73
     9
 74
     7
 42
0.000000001
 43
0.0000001
 44
0.0000000001
 40
0.0
 40
0.0
 40
0.0
 40
0.0
 40
1.965951366595841
 40
3.401971461548191
 40
4.697150473303751
 40
5.067856192547859
 40
5.479444783871105
 40
5.843000233970415
 40
5.843000233970415
 40
5.843000233970415
 40
5.843000233970415
 10
593.7765206628901
 20
16.55338066333495
 30
0.0
 10
593.7241540963454
 20
15.90023278150729
 30
0.0
 10
593.6335366131506
 20
14.76999604630469
 30
0.0
 10
593.371566944372
 20
13.22068538593045
 30
0.0
 10
593.0271002842882
 20
12.24250227287645
 30
0.0
 10
592.777775083229
 20
11.59663231784629
 30
0.0
 10
592.6509922467775
 20
11.23622290205839
 30
0.0
 10
592.5717718128752
 20
10.99028509843424
 30
0.0
 10
592.5346161115278
 20
10.87493617731124
 30
0.0
 11
593.7765206628901
 21
16.55338066333495
 31
0.0
 11
593.5863204942634
 21
14.59665158866098
 31
0.0
 11
593.3219750679115
 21
13.1851717947306
 31
0.0
 11
592.9154114193457
 21
11.95545854679148
 31
0.0
 11
592.7843273020773
 21
11.60870260310738
 31
0.0
 11
592.6475230888261
 21
11.22051479322125
 31
0.0
 11
592.5346161115278
 21
10.87493617731124
 31
0.0
  0
LWPOLYLINE
  5
15B
330
1F
100
AcDbEntity
  8
IMAGE
 62
     7
100
AcDbPolyline
 90
        3
 70
     0
 43
0.0
 10
592.534616
 20
10.874936
 10
592.369005
 20
10.33628
 10
591.648782
 20
9.26006
  0
SPLINE
  5
15C
330
1F
100
AcDbEntity
  8
IMAGE
 62
     7
100
AcDbSpline
210
0.0
220
0.0
230
1.0
 70
  1064
 71
     3
 72
    16
 73
    12
 74
    10
 42
0.000000001
 43
0.0000001
 44
0.0000000001
 40
0.0
 40
0.0
 40
0.0
 40
0.0
 40
1.301542767077996
 40
1.895383812424969
 40
2.294528228479655
 40
2.676218862194291
 40
3.267018847766821
 40
3.939037887023736
 40
5.252334982407143
 40
6.554530290425275
 40
8.676598888483253
 40
8.676598888483253
 40
8.676598888483253
 40
8.676598888483253
 10
591.6487817713002
 20
9.260060193581133
 30
0.0
 10
591.40698737858
 20
8.90014094521947
 30
0.0
 10
591.0548720355507
 20
8.37600517774378
 30
0.0
 10
590.6270308577937
 20
7.740226135253017
 30
0.0
 10
590.3204237717796
 20
7.398883518177366
 30
0.0
 10
590.0166260804651
 20
7.057406803079788
 30
0.0
 10
589.6558154198025
 20
6.644532740604904
 30
0.0
 10
589.0932099747839
 20
5.996477625354956
 30
0.0
 10
588.3732441260275
 20
5.165512083392814
 30
0.0
 10
587.1266035054174
 20
4.186355335983828
 30
0.0
 10
586.1758403679783
 20
3.555456498259648
 30
0.0
 10
585.58663794273
 20
3.164478860785464
 30
0.0
 11
591.6487817713002
 21
9.260060193581133
 31
0.0
 11
590.9227852234421
 21
8.179809025087764
 31
0.0
 11
590.5777371785904
 21
7.696498530806116
 31
0.0
 11
590.3168478963585
 21
7.394417337607744
 31
0.0
 11
590.0632528285888
 21
7.10915030223845
 31
0.0
 11
589.6739143863277
 21
6.664785361755722
 31
0.0
 11
589.2331223823364
 21
6.157526060864041
 31
0.0
 11
588.3417056701173
 21
5.193095915172303
 31
0.0
 11
587.3351568584089
 21
4.366916691351679
 31
0.0
 11
585.58663794273
 21
3.164478860785464
 31
0.0
  0
LWPOLYLINE
  5
15D
330
1F
100
AcDbEntity
  8
IMAGE
 62
     7
100
AcDbPolyline
 90
        3
 70
     0
 43
0.0
 10
585.586638
 20
3.164479
 10
584.68799
 20
2.561612
 10
584.11394
 20
2.359846
  0
SPLINE
  5
15E
330
1F
100
AcDbEntity
  8
IMAGE
 62
     7
100
AcDbSpline
210
0.0
220
0.0
230
1.0
 70
  1064
 71
     3
 72
    13
 73
     9
 74
     7
 42
0.000000001
 43
0.0000001
 44
0.0000000001
 40
0.0
 40
0.0
 40
0.0
 40
0.0
 40
0.795694871355921
 40
1.658774455713637
 40
2.333010340307321
 40
2.58701961580551
 40
2.941171656146157
 40
3.319343101774242
 40
3.319343101774242
 40
3.319343101774242
 40
3.319343101774242
 10
584.1139398347582
 20
2.359846161007741
 30
0.0
 10
583.8593554112018
 20
2.284214100667828
 30
0.0
 10
583.3286266685393
 20
2.126544956073427
 30
0.0
 10
582.5621490048393
 20
1.997974103148989
 30
0.0
 10
581.9646863604379
 20
1.923646004599491
 30
0.0
 10
581.5388984049208
 20
1.971308026563057
 30
0.0
 10
581.2137155990162
 20
2.018988220205238
 30
0.0
 10
580.9738029488741
 20
2.064341027592226
 30
0.0
 10
580.8499121882103
 20
2.087761192398415
 30
0.0
 11
584.1139398347582
 21
2.359846161007741
 31
0.0
 11
583.3469103349014
 21
2.148195329089795
 31
0.0
 11
582.4976866111172
 21
1.994164696106856
 31
0.0
 11
581.8252653025086
 21
1.944731794078572
 31
0.0
 11
581.5723961675817
 21
1.96877160773118
 31
0.0
 11
581.2219914482041
 21
2.020154487325005
 31
0.0
 11
580.8499121882103
 21
2.087761192398415
 31
0.0
  0
LWPOLYLINE
  5
15F
330
1F
100
AcDbEntity
  8
IMAGE
 62
     7
100
AcDbPolyline
 90
        2
 70
     0
 43
0.0
 10
580.849912
 20
2.087761
 10
580.849876
 20
2.087761
  0
LINE
  5
10061
330
1F
100
AcDbEntity
  8
0
  6
BYBLOCK
100
AcDbLine
 10
554.605508
 20
47.991589
 30
0.0
 11
552.663063
 21
40.388357
 31
0.0
  0
LINE
  5
10062
330
1F
100
AcDbEntity
  8
0
  6
BYBLOCK
100
AcDbLine
 10
556.16377
 20
46.674318
 30
0.0
 11
553.933953
 21
38.79054
 31
0.0
  0
LINE
  5
10063
330
1F
100
AcDbEntity
  8
0
  6
BYBLOCK
100
AcDbLine
 10
561.592775
 20
43.125007
 30
0.0
 11
559.210946
 21
34.760097
 31
0.0
  0
LINE
  5
10064
330
1F
100
AcDbEntity
  8
0
  6
BYBLOCK
100
AcDbLine
 10
562.945016
 20
42.448535
 30
0.0
 11
560.72768
 21
33.904072
 31
0.0
  0
LINE
  5
10065
330
1F
100
AcDbEntity
  8
0
  6
BYBLOCK
100
AcDbLine
 10
571.810607
 20
39.629018
 30
0.0
 11
570.024885
 21
30.995935
 31
0.0
  0
LINE
  5
10066
330
1F
100
AcDbEntity
  8
0
  6
BYBLOCK
100
AcDbLine
 10
573.930039
 20
39.1724
 30
0.0
 11
572.474096
 21
30.801018
 31
0.0
  0
LINE
  5
10067
330
1F
100
AcDbEntity
  8
0
  6
BYBLOCK
100
AcDbLine
 10
580.757066
 20
39.240376
 30
0.0
 11
580.144771
 21
32.305898
 31
0.0
  0
LINE
  5
10068
330
1F
100
AcDbEntity
  8
0
  6
BYBLOCK
100
AcDbLine
 10
582.712538
 20
39.47749
 30
0.0
 11
582.361531
 21
33.635435
 31
0.0
  0
ARC
  5
10069
330
1F
100
AcDbEntity
  8
0
  6
BYBLOCK
100
AcDbCircle
 10
564.952764
 20
48.859147
 30
0.0
 40
14.92618599372079
100
AcDbArc
 50
166.185785
 51
214.576911
  0
ARC
  5
1006A
330
1F
100
AcDbEntity
  8
0
  6
BYBLOCK
100
AcDbCircle
 10
564.952764
 20
48.859147
 30
0.0
 40
14.9261859938289
100
AcDbArc
 50
222.419984
 51
238.769084
  0
ARC
  5
1006B
330
1F
100
AcDbEntity
  8
0
  6
BYBLOCK
100
AcDbCircle
 10
577.819991
 20
73.872796
 30
0.0
 40
34.76706897396608
100
AcDbArc
 50
218.09399
 51
228.109073
  0
ARC
  5
1006D
330
1F
100
AcDbEntity
  8
0
  6
BYBLOCK
100
AcDbCircle
 10
577.819991
 20
73.872796
 30
0.0
 40
34.76706897396625
100
AcDbArc
 50
231.472175
 51
242.177045
  0
ARC
  5
1006F
330
1F
100
AcDbEntity
  8
0
  6
BYBLOCK
100
AcDbCircle
 10
573.419321
 20
58.163292
 30
0.0
 40
27.37859562322386
100
AcDbArc
 50
233.70747
 51
238.737534
  0
ARC
  5
10071
330
1F
100
AcDbEntity
  8
0
  6
BYBLOCK
100
AcDbCircle
 10
573.419321
 20
58.163292
 30
0.0
 40
27.37859562322662
100
AcDbArc
 50
242.382888
 51
262.878065
  0
ARC
  5
10072
330
1F
100
AcDbEntity
  8
0
  6
BYBLOCK
100
AcDbCircle
 10
573.419321
 20
58.163292
 30
0.0
 40
27.37859561916944
100
AcDbArc
 50
268.021513
 51
272.850819
  0
ARC
  5
10073
330
1F
100
AcDbEntity
  8
0
  6
BYBLOCK
100
AcDbCircle
 10
577.819991
 20
73.872796
 30
0.0
 40
34.76706897396343
100
AcDbArc
 50
244.669018
 51
260.046607
  0
ARC
  5
10075
330
1F
100
AcDbEntity
  8
0
  6
BYBLOCK
100
AcDbCircle
 10
573.477363
 20
45.935367
 30
0.0
 40
15.17289491912716
100
AcDbArc
 50
274.928909
 51
296.067442
  0
ARC
  5
10077
330
1F
100
AcDbEntity
  8
0
  6
BYBLOCK
100
AcDbCircle
 10
576.94906
 20
78.826702
 30
0.0
 40
39.76906011036766
100
AcDbArc
 50
265.646271
 51
275.494659
  0
ARC
  5
1007A
330
1F
100
AcDbEntity
  8
0
  6
BYBLOCK
100
AcDbCircle
 10
576.94906
 20
78.826702
 30
0.0
 40
39.76906011036766
100
AcDbArc
 50
278.33286
 51
285.613741
  0
ARC
  5
1007C
330
1F
100
AcDbEntity
  8
0
  6
BYBLOCK
100
AcDbCircle
 10
573.477363
 20
45.935367
 30
0.0
 40
15.17289491912716
100
AcDbArc
 50
305.840357
 51
339.110427
  0
ARC
  5
1007D
330
1F
100
AcDbEntity
  8
0
  6
BYBLOCK
100
AcDbCircle
 10
562.537777
 20
57.319719
 30
0.0
 40
7.349520212866328
100
AcDbArc
 50
113.168966
 51
286.141609
  0
LINE
  5
1007E
330
1F
100
AcDbEntity
  8
0
  6
BYBLOCK
100
AcDbLine
 10
559.646152
 20
64.07649
 30
0.0
 11
562.186165
 21
56.475011
 31
0.0
  0
LINE
  5
10083
330
1F
100
AcDbEntity
  8
0
  6
BYBLOCK
100
AcDbLine
 10
562.703716
 20
52.785869
 30
0.0
 11
563.230965
 21
54.657087
 31
0.0
  0
LINE
  5
10085
330
1F
100
AcDbEntity
  8
0
  6
BYBLOCK
100
AcDbLine
 10
564.581034
 20
50.259935
 30
0.0
 11
563.230965
 21
54.657087
 31
0.0
  0
LINE
  5
100AE
330
1F
100
AcDbEntity
  8
0
  6
BYBLOCK
100
AcDbLine
 10
589.572658
 20
56.270202
 30
0.0
 11
580.741504
 21
50.85364
 31
0.0
  0
LINE
  5
100F8
330
1F
100
AcDbEntity
  8
0
  6
BYBLOCK
100
AcDbLine
 10
578.830946
 20
47.655609
 30
0.0
 11
579.07234
 21
49.750538
 31
0.0
  0
LINE
  5
100F9
330
1F
100
AcDbEntity
  8
0
  6
BYBLOCK
100
AcDbLine
 10
579.07234
 20
49.750538
 30
0.0
 11
575.435968
 21
47.37545
 31
0.0
  0
ARC
  5
100FA
330
1F
100
AcDbEntity
  8
0
  6
BYBLOCK
100
AcDbCircle
 10
581.753085
 20
53.016774
 30
0.0
 40
8.46938606366658
100
AcDbArc
 50
221.765551
 51
22.590345
  0
ARC
  5
100FC
330
1F
100
AcDbEntity
  8
0
  6
BYBLOCK
100
AcDbCircle
 10
567.990539
 20
53.647192
 30
0.0
 40
6.456571401166777
100
AcDbArc
 50
154.02523
 51
182.878179
  0
ARC
  5
100FF
330
1F
100
AcDbEntity
  8
0
  6
BYBLOCK
100
AcDbCircle
 10
562.444941
 20
53.750859
 30
0.0
 40
0.9990847165864846
100
AcDbArc
 50
205.357172
 51
285.011481
  0
ARC
  5
10100
330
1F
100
AcDbEntity
  8
0
  6
BYBLOCK
100
AcDbCircle
 10
574.294416
 20
50.503814
 30
0.0
 40
6.456571401167931
100
AcDbArc
 50
334.252929
 51
3.105878
  0
ARC
  5
10101
330
1F
100
AcDbEntity
  8
0
  6
BYBLOCK
100
AcDbCircle
 10
579.444399
 20
48.444181
 30
0.0
 40
0.9990847165864533
100
AcDbArc
 50
232.119627
 51
311.773936
  0
ENDSEC
  0
SECTION
  2
OBJECTS
  0
DICTIONARY
  5
C
330
0
100
AcDbDictionary
  3
ACAD_GROUP
350
D
  3
ACAD_IMAGE_DICT
350
10103
  3
ACAD_LAYOUT
350
10021
  3
ACAD_MATERIAL
350
1003D
  3
ACAD_MLEADERSTYLE
350
10056
  3
ACAD_MLINESTYLE
350
17
  3
ACAD_PLOTSETTINGS
350
10102
  3
ACAD_SCALELIST
350
FFFF
  3
ACAD_VISUALSTYLE
350
10024
  3
ACDBHEADERROUNDTRIPXREC
350
10104
  3
ACDBVARIABLEDICTIONARY
350
10054
  3
MCS_STREAM_DICT
350
10043
  0
DICTIONARY
  5
10126
330
8
100
AcDbDictionary
280
     1
  3
ACAD_XREC_ROUNDTRIP
360
10127
  0
DICTIONARY
  5
1004D
330
1F
100
AcDbDictionary
280
     1
  3
ACAD_SORTENTS
360
1004E
  0
DICTIONARY
  5
D
330
C
100
AcDbDictionary
  0
DICTIONARY
  5
10103
102
{ACAD_REACTORS
330
C
102
}
330
C
100
AcDbDictionary
  0
DICTIONARY
  5
10021
102
{ACAD_REACTORS
330
C
102
}
330
C
100
AcDbDictionary
  0
DICTIONARY
  5
1003D
102
{ACAD_REACTORS
330
C
102
}
330
C
100
AcDbDictionary
  3
BYBLOCK
350
1003F
  3
BYLAYER
350
1003E
  3
GLOBAL
350
10040
  0
DICTIONARY
  5
10056
102
{ACAD_REACTORS
330
C
102
}
330
C
100
AcDbDictionary
  0
DICTIONARY
  5
17
330
C
100
AcDbDictionary
  0
DICTIONARY
  5
10102
102
{ACAD_REACTORS
330
C
102
}
330
C
100
AcDbDictionary
  0
DICTIONARY
  5
FFFF
102
{ACAD_REACTORS
330
C
102
}
330
C
100
AcDbDictionary
  3
A0
350
10000
  3
A1
350
10001
  3
A2
350
10002
  3
A3
350
10003
  3
A4
350
10004
  3
A5
350
10005
  3
A6
350
10006
  3
A7
350
10007
  3
A8
350
10008
  3
A9
350
10009
  3
B0
350
1000A
  3
B1
350
1000B
  3
B2
350
1000C
  3
B3
350
1000D
  3
B4
350
1000E
  3
B5
350
1000F
  3
B6
350
10010
  3
B7
350
10011
  3
B8
350
10012
  3
B9
350
10013
  3
C0
350
10014
  3
C1
350
10015
  3
C2
350
10016
  3
C3
350
10017
  3
C4
350
10018
  3
C5
350
10019
  3
C6
350
1001A
  3
C7
350
1001B
  3
C8
350
1001C
  3
C9
350
1001D
  3
D0
350
1001E
  3
D1
350
1001F
  3
D2
350
10020
  0
DICTIONARY
  5
10024
102
{ACAD_REACTORS
330
C
102
}
330
C
100
AcDbDictionary
  3
2DWIREFRAME
350
10029
  3
BASIC
350
1002C
  3
BRIGHTEN
350
10030
  3
COLORCHANGE
350
10034
  3
CONCEPTUAL
350
1002E
  3
DIM
350
1002F
  3
EDGECOLOROFF
350
10037
  3
FACEPATTERN
350
10033
  3
FLAT
350
10025
  3
FLATWITHEDGES
350
10026
  3
GOURAUD
350
10027
  3
GOURAUDWITHEDGES
350
10028
  3
HIDDEN
350
1002B
  3
JITTEROFF
350
10035
  3
LINEPATTERN
350
10032
  3
OVERHANGOFF
350
10036
  3
REALISTIC
350
1002D
  3
SHADED
350
1003C
  3
SHADED_WITH_EDGES
350
1003B
  3
SHADES_OF_GRAY
350
10038
  3
SKETCHY
350
10039
  3
THICKEN
350
10031
  3
WIREFRAME
350
1002A
  3
X-RAY
350
1003A
  0
DICTIONARY
  5
10104
102
{ACAD_REACTORS
330
C
102
}
330
C
100
AcDbDictionary
  3
CEPSNTYPE
350
1010D
  3
DIMSTYLEDATA
350
10123
  3
FINGERPRINTGUID
350
1010E
  3
HYPERLINKBASE
350
10107
  3
INSUNITS
350
1010C
  3
LAYOUTDICT
350
10109
  3
LWETCUNION
350
1010B
  3
PLOTSETDICT
350
1010A
  3
PSVPSCALE
350
10110
  3
PUCSBASE
350
10113
  3
PUCSORGBACK
350
10119
  3
PUCSORGBOTTOM
350
10115
  3
PUCSORGFRONT
350
10118
  3
PUCSORGLEFT
350
10116
  3
PUCSORGRIGHT
350
10117
  3
PUCSORGTOP
350
10114
  3
PUCSORTHOREF
350
10111
  3
PUCSORTHOVIEW
350
10112
  3
STYLESHEET
350
10108
  3
TSTACKALIGN
350
10105
  3
TSTACKSIZE
350
10106
  3
UCSBASE
350
1011C
  3
UCSORGBACK
350
10122
  3
UCSORGBOTTOM
350
1011E
  3
UCSORGFRONT
350
10121
  3
UCSORGLEFT
350
1011F
  3
UCSORGRIGHT
350
10120
  3
UCSORGTOP
350
1011D
  3
UCSORTHOREF
350
1011A
  3
UCSORTHOVIEW
350
1011B
  3
VERSIONGUID
350
1010F
  0
DICTIONARY
  5
10054
102
{ACAD_REACTORS
330
C
102
}
330
C
100
AcDbDictionary
  3
CANNOSCALE
350
10055
  3
DIMASSOC
350
10124
  3
HIDETEXT
350
10125
  3
MSLTSCALE
350
10057
  0
DICTIONARY
  5
10043
102
{ACAD_REACTORS
330
C
102
}
330
C
100
AcDbDictionary
  3
MC_VERSION_DATA
350
10052
  3
MCS_DOCUMENT_ID
350
10044
  3
MCS_PARAMS_DATA
350
10050
  0
XRECORD
  5
10127
102
{ACAD_REACTORS
330
10126
102
}
330
10126
100
AcDbXrecord
102
VTR_0.000_0.000_1.000_1.000_GRIDDISPLAY
 70
     3
102
VTR_0.000_0.000_1.000_1.000_GRIDMAJOR
 70
     5
102
VTR_0.000_0.000_1.000_1.000_DEFAULTLIGHTING
280
     1
102
VTR_0.000_0.000_1.000_1.000_DEFAULTLIGHTINGTYPE
 70
     1
102
VTR_0.000_0.000_1.000_1.000_BRIGHTNESS
141
0.0
102
VTR_0.000_0.000_1.000_1.000_CONTRAST
142
0.0
  0
SORTENTSTABLE
  5
1004E
102
{ACAD_REACTORS
330
1004D
102
}
330
1004D
100
AcDbSortentsTable
330
1F
331
0
  5
187
331
0
  5
188
331
0
  5
189
331
0
  5
18A
331
0
  5
18B
331
0
  5
18C
331
0
  5
18D
331
0
  5
18E
331
0
  5
18F
331
0
  5
190
331
0
  5
191
331
0
  5
192
331
0
  5
193
331
0
  5
194
331
0
  5
195
331
0
  5
196
331
0
  5
197
331
0
  5
198
331
0
  5
199
331
0
  5
19A
331
0
  5
19B
331
0
  5
19C
331
0
  5
19D
331
0
  5
19E
331
0
  5
19F
331
0
  5
1A0
331
0
  5
1A1
331
0
  5
1A2
331
0
  5
1A3
331
0
  5
1A4
331
0
  5
1A5
331
0
  5
1A6
331
0
  5
1A7
331
0
  5
1A8
331
0
  5
1A9
331
0
  5
1AA
331
0
  5
1AB
331
0
  5
1AC
331
0
  5
10049
331
0
  5
1004A
331
0
  5
1004B
331
0
  5
1004C
331
0
  5
186
  0
MATERIAL
  5
1003F
102
{ACAD_REACTORS
330
1003D
102
}
102
{ACAD_XDICTIONARY
360
1012A
102
}
330
1003D
100
AcDbMaterial
  1
BYBLOCK
  0
MATERIAL
  5
1003E
102
{ACAD_REACTORS
330
1003D
102
}
102
{ACAD_XDICTIONARY
360
10128
102
}
330
1003D
100
AcDbMaterial
  1
BYLAYER
  0
MATERIAL
  5
10040
102
{ACAD_REACTORS
330
1003D
102
}
102
{ACAD_XDICTIONARY
360
1012C
102
}
330
1003D
100
AcDbMaterial
  1
GLOBAL
  0
ACAD_PROXY_OBJECT
  5
10000
102
{ACAD_REACTORS
330
FFFF
102
}
330
FFFF
100
AcDbProxyObject
 90
      499
 91
      500
 93
       41
310
903313A31580
  0
ACAD_PROXY_OBJECT
  5
10001
102
{ACAD_REACTORS
330
FFFF
102
}
330
FFFF
100
AcDbProxyObject
 90
      499
 91
      500
 93
      105
310
903313A324000000000000004000
  0
ACAD_PROXY_OBJECT
  5
10002
102
{ACAD_REACTORS
330
FFFF
102
}
330
FFFF
100
AcDbProxyObject
 90
      499
 91
      500
 93
      105
310
903313A344000000000000104000
  0
ACAD_PROXY_OBJECT
  5
10003
102
{ACAD_REACTORS
330
FFFF
102
}
330
FFFF
100
AcDbProxyObject
 90
      499
 91
      500
 93
      105
310
903313A354000000000000144000
  0
ACAD_PROXY_OBJECT
  5
10004
102
{ACAD_REACTORS
330
FFFF
102
}
330
FFFF
100
AcDbProxyObject
 90
      499
 91
      500
 93
      105
310
903313A384000000000000204000
  0
ACAD_PROXY_OBJECT
  5
10005
102
{ACAD_REACTORS
330
FFFF
102
}
330
FFFF
100
AcDbProxyObject
 90
      499
 91
      500
 93
      113
310
904313A31304000000000000244000
  0
ACAD_PROXY_OBJECT
  5
10006
102
{ACAD_REACTORS
330
FFFF
102
}
330
FFFF
100
AcDbProxyObject
 90
      499
 91
      500
 93
      113
310
904313A31364000000000000304000
  0
ACAD_PROXY_OBJECT
  5
10007
102
{ACAD_REACTORS
330
FFFF
102
}
330
FFFF
100
AcDbProxyObject
 90
      499
 91
      500
 93
      113
310
904313A32304000000000000344000
  0
ACAD_PROXY_OBJECT
  5
10008
102
{ACAD_REACTORS
330
FFFF
102
}
330
FFFF
100
AcDbProxyObject
 90
      499
 91
      500
 93
      113
310
904313A333040000000000003E4000
  0
ACAD_PROXY_OBJECT
  5
10009
102
{ACAD_REACTORS
330
FFFF
102
}
330
FFFF
100
AcDbProxyObject
 90
      499
 91
      500
 93
      113
310
904313A34304000000000000444000
  0
ACAD_PROXY_OBJECT
  5
1000A
102
{ACAD_REACTORS
330
FFFF
102
}
330
FFFF
100
AcDbProxyObject
 90
      499
 91
      500
 93
      113
310
904313A35304000000000000494000
  0
ACAD_PROXY_OBJECT
  5
1000B
102
{ACAD_REACTORS
330
FFFF
102
}
330
FFFF
100
AcDbProxyObject
 90
      499
 91
      500
 93
      121
310
905313A3130304000000000000594000
  0
ACAD_PROXY_OBJECT
  5
1000C
102
{ACAD_REACTORS
330
FFFF
102
}
330
FFFF
100
AcDbProxyObject
 90
      499
 91
      500
 93
      105
310
903323A310000000000000010100
  0
ACAD_PROXY_OBJECT
  5
1000D
102
{ACAD_REACTORS
330
FFFF
102
}
330
FFFF
100
AcDbProxyObject
 90
      499
 91
      500
 93
      105
310
903343A310000000000000410100
  0
ACAD_PROXY_OBJECT
  5
1000E
102
{ACAD_REACTORS
330
FFFF
102
}
330
FFFF
100
AcDbProxyObject
 90
      499
 91
      500
 93
      105
310
903383A310000000000000810100
  0
ACAD_PROXY_OBJECT
  5
1000F
102
{ACAD_REACTORS
330
FFFF
102
}
330
FFFF
100
AcDbProxyObject
 90
      499
 91
      500
 93
      113
310
90431303A310000000000000910100
  0
ACAD_PROXY_OBJECT
  5
10010
102
{ACAD_REACTORS
330
FFFF
102
}
330
FFFF
100
AcDbProxyObject
 90
      499
 91
      500
 93
      121
310
9053130303A310000000000001650100
  0
ACAD_PROXY_OBJECT
  5
10011
102
{ACAD_REACTORS
330
FFFF
102
}
330
FFFF
100
AcDbProxyObject
 90
      499
 91
      500
 93
      257
310
90E312F31323822203D2031272D3022000000000000200FC000000000000284000
  0
ACAD_PROXY_OBJECT
  5
10012
102
{ACAD_REACTORS
330
FFFF
102
}
330
FFFF
100
AcDbProxyObject
 90
      499
 91
      500
 93
      249
310
90D312F363422203D2031272D3022000000000000240FC000000000000284000
  0
ACAD_PROXY_OBJECT
  5
10013
102
{ACAD_REACTORS
330
FFFF
102
}
330
FFFF
100
AcDbProxyObject
 90
      499
 91
      500
 93
      249
310
90D312F333222203D2031272D3022000000000000280FC000000000000284000
  0
ACAD_PROXY_OBJECT
  5
10014
102
{ACAD_REACTORS
330
FFFF
102
}
330
FFFF
100
AcDbProxyObject
 90
      499
 91
      500
 93
      249
310
90D312F313622203D2031272D30220000000000002C0FC000000000000284000
  0
ACAD_PROXY_OBJECT
  5
10015
102
{ACAD_REACTORS
330
FFFF
102
}
330
FFFF
100
AcDbProxyObject
 90
      499
 91
      500
 93
      249
310
90D332F333222203D2031272D30220000000000002E0FC000000000000284000
  0
ACAD_PROXY_OBJECT
  5
10016
102
{ACAD_REACTORS
330
FFFF
102
}
330
FFFF
100
AcDbProxyObject
 90
      499
 91
      500
 93
      241
310
90C312F3822203D2031272D3022000000000000300FC000000000000284000
  0
ACAD_PROXY_OBJECT
  5
10017
102
{ACAD_REACTORS
330
FFFF
102
}
330
FFFF
100
AcDbProxyObject
 90
      499
 91
      500
 93
      249
310
90D332F313622203D2031272D3022000000000000320FC000000000000284000
  0
ACAD_PROXY_OBJECT
  5
10018
102
{ACAD_REACTORS
330
FFFF
102
}
330
FFFF
100
AcDbProxyObject
 90
      499
 91
      500
 93
      241
310
90C312F3422203D2031272D3022000000000000340FC000000000000284000
  0
ACAD_PROXY_OBJECT
  5
10019
102
{ACAD_REACTORS
330
FFFF
102
}
330
FFFF
100
AcDbProxyObject
 90
      499
 91
      500
 93
      241
310
90C332F3822203D2031272D3022000000000000360FC000000000000284000
  0
ACAD_PROXY_OBJECT
  5
1001A
102
{ACAD_REACTORS
330
FFFF
102
}
330
FFFF
100
AcDbProxyObject
 90
      499
 91
      500
 93
      241
310
90C312F3222203D2031272D3022000000000000380FC000000000000284000
  0
ACAD_PROXY_OBJECT
  5
1001B
102
{ACAD_REACTORS
330
FFFF
102
}
330
FFFF
100
AcDbProxyObject
 90
      499
 91
      500
 93
      241
310
90C332F3422203D2031272D30220000000000003A0FC000000000000284000
  0
ACAD_PROXY_OBJECT
  5
1001C
102
{ACAD_REACTORS
330
FFFF
102
}
330
FFFF
100
AcDbProxyObject
 90
      499
 91
      500
 93
      161
310
90A3122203D2031272D30224000000000000284000
  0
ACAD_PROXY_OBJECT
  5
1001D
102
{ACAD_REACTORS
330
FFFF
102
}
330
FFFF
100
AcDbProxyObject
 90
      499
 91
      500
 93
      257
310
90E312D312F3222203D2031272D30220000000000003E0FC000000000000284000
  0
ACAD_PROXY_OBJECT
  5
1001E
102
{ACAD_REACTORS
330
FFFF
102
}
330
FFFF
100
AcDbProxyObject
 90
      499
 91
      500
 93
      225
310
90A3322203D2031272D302200000000000002100000000000000284000
  0
ACAD_PROXY_OBJECT
  5
1001F
102
{ACAD_REACTORS
330
FFFF
102
}
330
FFFF
100
AcDbProxyObject
 90
      499
 91
      500
 93
      225
310
90A3622203D2031272D302200000000000006100000000000000284000
  0
ACAD_PROXY_OBJECT
  5
10020
102
{ACAD_REACTORS
330
FFFF
102
}
330
FFFF
100
AcDbProxyObject
 90
      499
 91
      500
 93
      249
310
90D31272D3022203D2031272D30220000000000000A100000000000000284000
  0
ACAD_PROXY_OBJECT
  5
10029
102
{ACAD_REACTORS
330
10024
102
}
330
10024
100
AcDbProxyObject
 90
      499
 91
      501
 93
      436
310
42CC9915DA5C99599C985B595049028333333333333E33F0000000000000F90107901411070040501600405405064090741402480A0340
1001
ACAD
1000
AcDbSavedByObjectVersion
1070
     0
  0
ACAD_PROXY_OBJECT
  5
1002C
102
{ACAD_REACTORS
330
10024
102
}
330
10024
100
AcDbProxyObject
 90
      499
 91
      501
 93
      388
310
4150985CDA58D07406404333333333333E33F0000000000000F90107A41107004050150841D405064090741402480A0350
1001
ACAD
1000
AcDbSavedByObjectVersion
1070
     0
  0
ACAD_PROXY_OBJECT
  5
10030
102
{ACAD_REACTORS
330
10024
102
}
330
10024
100
AcDbProxyObject
 90
      499
 91
      501
 93
      428
310
42109C9A59DA1D195B90C409028333333333333E33F0000000000000F9010790141107004050150841D405064090741402480A029950
1001
ACAD
1000
AcDbSavedByObjectVersion
1070
     0
  0
ACAD_PROXY_OBJECT
  5
10034
102
{ACAD_REACTORS
330
10024
102
}
330
10024
100
AcDbProxyObject
 90
      499
 91
      501
 93
      452
310
42D0DBDB1BDC90DA185B99D95104090240C333333333333E33F0000000000000F90108901411070040501508421405064090741402480A0350
1001
ACAD
1000
AcDbSavedByObjectVersion
1070
     0
  0
ACAD_PROXY_OBJECT
  5
1002E
102
{ACAD_REACTORS
330
10024
102
}
330
10024
100
AcDbProxyObject
 90
      499
 91
      501
 93
      500
310
4290DBDB98D95C1D1D585B10940D028333333333333E33F0000000000000F90107902409070040501000000000018199010841D405064090740C02480A0340
1001
ACAD
1000
AcDbSavedByObjectVersion
1070
     0
  0
ACAD_PROXY_OBJECT
  5
1002F
102
{ACAD_REACTORS
330
10024
102
}
330
10024
100
AcDbProxyObject
 90
      499
 91
      501
 93
      412
310
40D11A5B50B409028333333333333E33F0000000000000F9010790141107004050150841D405064090741402480A02677FFFFFD0
1001
ACAD
1000
AcDbSavedByObjectVersion
1070
     0
  0
ACAD_PROXY_OBJECT
  5
10037
102
{ACAD_REACTORS
330
10024
102
}
330
10024
100
AcDbProxyObject
 90
      499
 91
      501
 93
      452
310
43115919D950DBDB1BDC93D999916409028333333333333E33F0000000000000F9010790141107004050150841D405064090741402480A0350
1001
ACAD
1000
AcDbSavedByObjectVersion
1070
     0
  0
ACAD_PROXY_OBJECT
  5
10033
102
{ACAD_REACTORS
330
10024
102
}
330
10024
100
AcDbProxyObject
 90
      499
 91
      501
 93
      444
310
42D19858D95C185D1D195C9B90F409028333333333333E33F0000000000000F9010790141107004050150841D405064090741402480A0350
1001
ACAD
1000
AcDbSavedByObjectVersion
1070
     0
  0
ACAD_PROXY_OBJECT
  5
10025
102
{ACAD_REACTORS
330
10024
102
}
330
10024
100
AcDbProxyObject
 90
      499
 91
      501
 93
      380
310
41119B185D240901404333333333333E33F0000000000000F9010740A907004050150841D405064090741402480A1B50
1001
ACAD
1000
AcDbSavedByObjectVersion
1070
     0
  0
ACAD_PROXY_OBJECT
  5
10026
102
{ACAD_REACTORS
330
10024
102
}
330
10024
100
AcDbProxyObject
 90
      499
 91
      501
 93
      468
310
43519B185D15DA5D1A115919D95CD0140901404333333333333E33F0000000000000F90107409019070040501600405405064090741402480A1B50
1001
ACAD
1000
AcDbSavedByObjectVersion
1070
     0
  0
ACAD_PROXY_OBJECT
  5
10027
102
{ACAD_REACTORS
330
10024
102
}
330
10024
100
AcDbProxyObject
 90
      499
 91
      501
 93
      404
310
41D1DBDD5C985D5910240902404333333333333E33F0000000000000F9010740A9070040501641D405064090741402480A1B50
1001
ACAD
1000
AcDbSavedByObjectVersion
1070
     0
  0
ACAD_PROXY_OBJECT
  5
10028
102
{ACAD_REACTORS
330
10024
102
}
330
10024
100
AcDbProxyObject
 90
      499
 91
      501
 93
      492
310
4411DBDD5C985D5915DA5D1A115919D95CD0340902404333333333333E33F0000000000000F90107409019070040501600405405064090741402480A1B50
1001
ACAD
1000
AcDbSavedByObjectVersion
1070
     0
  0
ACAD_PROXY_OBJECT
  5
1002B
102
{ACAD_REACTORS
330
10024
102
}
330
10024
100
AcDbProxyObject
 90
      499
 91
      501
 93
      476
310
41921A5919195B90640502408333333333333E33F0000000000000F901079024090700405020000000000001110200405405064090740C02480A0340
1001
ACAD
1000
AcDbSavedByObjectVersion
1070
     0
  0
ACAD_PROXY_OBJECT
  5
10035
102
{ACAD_REACTORS
330
10024
102
}
330
10024
100
AcDbProxyObject
 90
      499
 91
      501
 93
      428
310
42529A5D1D195C93D999914409028333333333333E33F0000000000000F9010790141107004050150A41D405064090741402480A0350
1001
ACAD
1000
AcDbSavedByObjectVersion
1070
     0
  0
ACAD_PROXY_OBJECT
  5
10032
102
{ACAD_REACTORS
330
10024
102
}
330
10024
100
AcDbProxyObject
 90
      499
 91
      501
 93
      444
310
42D31A5B995C185D1D195C9B90E409028333333333333E33F0000000000000F9010790141107004050750841D405064090741402483A0350
1001
ACAD
1000
AcDbSavedByObjectVersion
1070
     0
  0
ACAD_PROXY_OBJECT
  5
10036
102
{ACAD_REACTORS
330
10024
102
}
330
10024
100
AcDbProxyObject
 90
      499
 91
      501
 93
      444
310
42D3DD995C9A185B99D3D999915409028333333333333E33F0000000000000F9010790141107004050150941D405064090741402480A0350
1001
ACAD
1000
AcDbSavedByObjectVersion
1070
     0
  0
ACAD_PROXY_OBJECT
  5
1002D
102
{ACAD_REACTORS
330
10024
102
}
330
10024
100
AcDbProxyObject
 90
      499
 91
      501
 93
      428
310
425499585B1A5CDD1A58D08409038333333333333E33F0000000000000F9010740A907004050150800405405064090740C02480A1B40
1001
ACAD
1000
AcDbSavedByObjectVersion
1070
     0
  0
ACAD_PROXY_OBJECT
  5
1003C
102
{ACAD_REACTORS
330
10024
102
}
330
10024
100
AcDbProxyObject
 90
      499
 91
      501
 93
      420
310
4194DA1859195911B40902404333333333333E33F0000000000000F9010740A41107004050150800405405064090840C02480A0B40
1001
ACAD
1000
AcDbSavedByObjectVersion
1070
     0
  0
ACAD_PROXY_OBJECT
  5
1003B
102
{ACAD_REACTORS
330
10024
102
}
330
10024
100
AcDbProxyObject
 90
      499
 91
      501
 93
      516
310
4454DA18591959081DDA5D1A08195919D95CD1A40902404333333333333E33F0000000000000F901074090142907004050250800405405064090740C02480A0B40
1001
ACAD
1000
AcDbSavedByObjectVersion
1070
     0
  0
ACAD_PROXY_OBJECT
  5
10038
102
{ACAD_REACTORS
330
10024
102
}
330
10024
100
AcDbProxyObject
 90
      499
 91
      501
 93
      532
310
4394DA1859195CC81BD98811DC985E5174090240C333333333333E33F0000000000000F901079024090741D01000000000000111010841D405064090740C02480A0340
1001
ACAD
1000
AcDbSavedByObjectVersion
1070
     0
  0
ACAD_PROXY_OBJECT
  5
10039
102
{ACAD_REACTORS
330
10024
102
}
330
10024
100
AcDbProxyObject
 90
      499
 91
      501
 93
      476
310
41D4DAD95D18DA1E51840502408333333333333E33F0000000000000F901079024090741D01000000000000111010B41D405064090741802480A0340
1001
ACAD
1000
AcDbSavedByObjectVersion
1070
     0
  0
ACAD_PROXY_OBJECT
  5
10031
102
{ACAD_REACTORS
330
10024
102
}
330
10024
100
AcDbProxyObject
 90
      499
 91
      501
 93
      412
310
41D51A1A58DAD95B90D409028333333333333E33F0000000000000F9010790141107004050150C41D405064090741402480A0350
1001
ACAD
1000
AcDbSavedByObjectVersion
1070
     0
  0
ACAD_PROXY_OBJECT
  5
1002A
102
{ACAD_REACTORS
330
10024
102
}
330
10024
100
AcDbProxyObject
 90
      499
 91
      501
 93
      420
310
4255DA5C99599C985B595059028333333333333E33F0000000000000F90107901411070040501600405405064090740C02480A0340
1001
ACAD
1000
AcDbSavedByObjectVersion
1070
     0
  0
ACAD_PROXY_OBJECT
  5
1003A
102
{ACAD_REACTORS
330
10024
102
}
330
10024
100
AcDbProxyObject
 90
      499
 91
      501
 93
      404
310
41560B54985E51940902404000000000000E03F0000000000000F9010740501907004050150841D405064090740C02480A1B40
1001
ACAD
1000
AcDbSavedByObjectVersion
1070
     0
  0
XRECORD
  5
1010D
102
{ACAD_REACTORS
330
10104
102
}
330
10104
100
AcDbXrecord
 90
        0
  0
XRECORD
  5
10123
102
{ACAD_REACTORS
330
10104
102
}
330
10104
100
AcDbXrecord
1000
DSTYLE
1002
{
1070
   171
 70
     2
1070
   143
 40
25.4
1070
   274
 70
     2
1070
    41
 40
0.18
1070
   141
 40
0.09
1070
   271
 70
     4
1070
    43
 40
0.38
1070
   278
 70
    46
1070
    44
 40
0.18
1070
    42
 40
0.0625
1070
   147
 40
0.09
1070
    77
 70
     0
1070
   272
 70
     4
1070
    73
 70
     1
1070
   279
 70
     2
1070
   172
 70
     0
1070
    74
 70
     1
1070
   283
 70
     1
1070
   340
340
11
1070
   140
 40
0.18
1070
   284
 70
     0
1070
    78
 70
     0
1002
}
  0
XRECORD
  5
1010E
102
{ACAD_REACTORS
330
10104
102
}
330
10104
100
AcDbXrecord
  1
{A28594E1-BB65-47AC-90F1-C6FB9474BCF6}
  0
XRECORD
  5
10107
102
{ACAD_REACTORS
330
10104
102
}
330
10104
100
AcDbXrecord
  1

  0
XRECORD
  5
1010C
102
{ACAD_REACTORS
330
10104
102
}
330
10104
100
AcDbXrecord
 90
        0
  0
XRECORD
  5
10109
102
{ACAD_REACTORS
330
10104
102
}
330
10104
100
AcDbXrecord
340
10021
  0
XRECORD
  5
1010B
102
{ACAD_REACTORS
330
10104
102
}
330
10104
100
AcDbXrecord
 90
    10781
  0
XRECORD
  5
1010A
102
{ACAD_REACTORS
330
10104
102
}
330
10104
100
AcDbXrecord
340
10102
  0
XRECORD
  5
10110
102
{ACAD_REACTORS
330
10104
102
}
330
10104
100
AcDbXrecord
 40
0.0
  0
XRECORD
  5
10113
102
{ACAD_REACTORS
330
10104
102
}
330
10104
100
AcDbXrecord
340
0
  0
XRECORD
  5
10119
102
{ACAD_REACTORS
330
10104
102
}
330
10104
100
AcDbXrecord
 10
0.0
 20
0.0
 30
0.0
  0
XRECORD
  5
10115
102
{ACAD_REACTORS
330
10104
102
}
330
10104
100
AcDbXrecord
 10
0.0
 20
0.0
 30
0.0
  0
XRECORD
  5
10118
102
{ACAD_REACTORS
330
10104
102
}
330
10104
100
AcDbXrecord
 10
0.0
 20
0.0
 30
0.0
  0
XRECORD
  5
10116
102
{ACAD_REACTORS
330
10104
102
}
330
10104
100
AcDbXrecord
 10
0.0
 20
0.0
 30
0.0
  0
XRECORD
  5
10117
102
{ACAD_REACTORS
330
10104
102
}
330
10104
100
AcDbXrecord
 10
0.0
 20
0.0
 30
0.0
  0
XRECORD
  5
10114
102
{ACAD_REACTORS
330
10104
102
}
330
10104
100
AcDbXrecord
 10
0.0
 20
0.0
 30
0.0
  0
XRECORD
  5
10111
102
{ACAD_REACTORS
330
10104
102
}
330
10104
100
AcDbXrecord
340
0
  0
XRECORD
  5
10112
102
{ACAD_REACTORS
330
10104
102
}
330
10104
100
AcDbXrecord
 70
     0
  0
XRECORD
  5
10108
102
{ACAD_REACTORS
330
10104
102
}
330
10104
100
AcDbXrecord
  1

  0
XRECORD
  5
10105
102
{ACAD_REACTORS
330
10104
102
}
330
10104
100
AcDbXrecord
 90
        1
  0
XRECORD
  5
10106
102
{ACAD_REACTORS
330
10104
102
}
330
10104
100
AcDbXrecord
 90
       70
  0
XRECORD
  5
1011C
102
{ACAD_REACTORS
330
10104
102
}
330
10104
100
AcDbXrecord
340
0
  0
XRECORD
  5
10122
102
{ACAD_REACTORS
330
10104
102
}
330
10104
100
AcDbXrecord
 10
0.0
 20
0.0
 30
0.0
  0
XRECORD
  5
1011E
102
{ACAD_REACTORS
330
10104
102
}
330
10104
100
AcDbXrecord
 10
0.0
 20
0.0
 30
0.0
  0
XRECORD
  5
10121
102
{ACAD_REACTORS
330
10104
102
}
330
10104
100
AcDbXrecord
 10
0.0
 20
0.0
 30
0.0
  0
XRECORD
  5
1011F
102
{ACAD_REACTORS
330
10104
102
}
330
10104
100
AcDbXrecord
 10
0.0
 20
0.0
 30
0.0
  0
XRECORD
  5
10120
102
{ACAD_REACTORS
330
10104
102
}
330
10104
100
AcDbXrecord
 10
0.0
 20
0.0
 30
0.0
  0
XRECORD
  5
1011D
102
{ACAD_REACTORS
330
10104
102
}
330
10104
100
AcDbXrecord
 10
0.0
 20
0.0
 30
0.0
  0
XRECORD
  5
1011A
102
{ACAD_REACTORS
330
10104
102
}
330
10104
100
AcDbXrecord
340
0
  0
XRECORD
  5
1011B
102
{ACAD_REACTORS
330
10104
102
}
330
10104
100
AcDbXrecord
 70
     0
  0
XRECORD
  5
1010F
102
{ACAD_REACTORS
330
10104
102
}
330
10104
100
AcDbXrecord
  1
{FAEB1C32-E019-11D5-929B-00C0DF256EC4}
  0
DICTIONARYVAR
  5
10055
102
{ACAD_REACTORS
330
10054
102
}
330
10054
100
DictionaryVariables
280
     0
  1
1:1
  0
DICTIONARYVAR
  5
10124
102
{ACAD_REACTORS
330
10054
102
}
330
10054
100
DictionaryVariables
280
     0
  1
2
  0
DICTIONARYVAR
  5
10125
102
{ACAD_REACTORS
330
10054
102
}
330
10054
100
DictionaryVariables
280
     0
  1
1
  0
DICTIONARYVAR
  5
10057
102
{ACAD_REACTORS
330
10054
102
}
330
10054
100
DictionaryVariables
280
     0
  1
0
  0
XRECORD
  5
10052
102
{ACAD_REACTORS
330
10043
102
}
330
10043
100
AcDbXrecord
300
MC_VERSION_DATA
 90
       95
310
0600000002000000570000001C000000E404000000000000000000007801936764E5D8CF7A8393818115C460606066E0646662626666706006F214793899F8DE3171E725E6E53B3BBA2878E6951050AF75FEFFFFFF520032DE0F3057000000
  0
XRECORD
  5
10044
102
{ACAD_REACTORS
330
10043
102
}
330
10043
100
AcDbXrecord
300
MCS_DOCUMENT_ID
 90
       60
310
0600000002000000150000001C000000E404000000000000000000007801E37D74A3FCF3E6C31B3D97962C2F604A0B3BFD1F080089500D5715000000
  0
XRECORD
  5
10050
102
{ACAD_REACTORS
330
10043
102
}
330
10043
100
AcDbXrecord
300
MCS_PARAMS_DATA
 90
     3313
310
0600000002000000F64B00001C000000E404000000000000000000007801C55C5B6C5CC519DE9D595FD6B9DF494B53970A1A6F4A58DF92A6426A1A1210527090E23EF0543976A2BA75E25CAC160A6DA92AF5A55255A96AD556551F4A49A0CF15A03EC0438190865E482021147221409310B6900B3826B1FB7F7366CEFC73E6
310
1CAFBDDE3D9B07D8FF3F73CEF7DFE6FB67E6ECBA757EA3143929F767A4FCCE8636299AA49C90529036BB402C105929F279912F89C6DEAF6FD8BC69AB14A46C51EAC2B9898909BA39945F872C1FCD848A834A91A13B1AD51D6D5266E8A9FAF627E9AABE92BD45CA6F03BD81A3CFC24D59D990C96408C7E066656E0232E13A03
310
14B0AB01724443F05CC3F08780DFC8F19B03FC710A073DC8486413411B49060E3311A05C24C45064703B01D7CCE196A818E5C59C9268B967CBD6DED68ED59DC52EEB78BEF08E09F8223D745649346F1DE9DB35D0B777C089FC5FC3C8EB60BF1A286CF47FE3467F17CC59C5CD990B0CD948C1A77FB9F5CA0E4F479188EA541E
310
3C25A2E22BC99C8892456878B2821857F6B05492C2AD881B41409C21325211340605C9C6DC6006EC49AC088A0CCBB25B1159B72248E415019155047D5453031360047082A7405D92B72AB0F03379693EAB50870260AC609E2C6F6510BB3D081DFE4EF5EFECD71494A7B3590EC7F12C5B25CB32539229914732934ECE22AF1D
310
D259AC8B7B7649E437DE7BDFA69EADF76EE95186E95A7ED74C032DBFA66A9BF1CEF341B19B78E45DDED9EF56FE29189043E4814BF734E1FF34659991678231F23A51010DA578E8294D435524988818E84710A7B2643B4F7C134F5CC6936D1E4176D01398C4D0A83AE0A6BDC86B0BB5C3E1E8299D70A5A945AC12322FE697C4
310
9C8DC3BBBE34D2BA77FBEEA1BEFEED79D15C120DF70F0FEE1A093EF60C8FF47F4BCAB3B0ED666EDB17F5733E2B445B5E2C298985C507BB8BEBBA3A3A3774178B1D777FA5B36B9D327BBE1ED84C030BC74C9EDAB5B64D88BC405AEF1E1CD9D73A34B88F70838775AD5DDBD1B9B6BBABBB73A0ABA37F5D7BE0E757F57D1DB80F
310
037BFBB60D6D6F1DDED1DA3B3CB47D6FDF2EF8A0AD5933506CEF2FF6F7ADD9D6B56D5DFF9A60D6A95222FF670B51F8295953F8455019945B7EE9315C7A8AFEC352DE9D4B4A5050256AA6D1B42D5F0C265BEED4473538E9811F770DEFDCDD3732B86D706870E4A1D69DC303E45F6349C807B6EFCB8B8692103DC352AE816545
310
9E9E798813B5E9A692C86DD9B1A355A5424F8E0BF018466AF90D150136590E2905AA568F782650907D5A7180140B84AD0159F8156902B8F63BDA8BE1A72E29AF48322EA98B5F578631B6F5489B26184C63434803DB221A328E6B58DEAED6DB808FEB6DC068BD0DF8A4DE065CABB7018B3045EB390B3EAD7704C6EA6DC07518
310
10B79C17773A0DB6C361F03BDD064B22C8C7303844629E5064B47323116EB9039777E096BB70247238880C6E39831B9F221C81B3E543C57019D4736C30574EE2DD4AD73B12B9771099772B997713E97A974DF4CECD5D9582B938116EC00926492C777A7F676A8F441E4C882C98032C983211AE26DE8974E196022EC7174366
310
F9AE62C95769E105B5C4B012E2E82ED8CD3516C5E34D519CF0D1F6765A8551C6CC0505130A3E8ABEC46EF81CED54DC1DA04AB7BC4DB0CA082453194AB29B82400C2B438BA6322032B88FE093B3E13470C11297490C8EEF78E88158D51A8AD42283A38F61044E78707A57F8BBDFE2DF2167F36975041D1DA7FCF59430C35792
310
05112533A905D5D3CAAB4759DBB4CA160F3E9309466F934A1794E7E1154C402D3088858048DCDF7EA3E7FECD5B7A7B376D5480CBF43A7E5E49CCBE6BEB37D945B2402FC65F52AB73B67E7F3A58AE93F37A04F6B7011D680556EBCCA2819BC8A21C320F385BBDB4EE56E6E32CE2CB18E358AD7676B4C7C096B1674BAF7B1278
310
1E906198B0DF8681EA696AF34D20563061CAB731C0DB01185B8B0DCA46538BD880EB0E2C6FC3120B40E62289BC162112587895C11513E18290E892090EBF46A9321968C513E0BB89A0AE8F2431B88A7DFC9E07A7BD0A8E668E3AF3CDEA083A3A8ECFB770A00AB53712018F2859D8DB3D93C2E4D422CB77A40BB73A5DB807A7
310
0857A5727AC8838BE45965D0D3D5B29CBEEF99145F4E558AC0C3E9C23D922EDC0FD285FBA107E7958EEDE721E98018A3E3AAC64E7F5C166D7ABA81B65C437BB31D766C74A6ED6E1FBC2766B7AFDAD87156F9771BF44A2A724C461AB43EE729AAFB710D63E2111810BBA3ABC9AE6037E09AB9BF3AB40BE8309F8736AB64CAB2
310
BE7E3364E5AC569CA6976081AF5A311628A8EF68C5B3A4609E3E86AC3AA156E3E83562F4B5A292099A878C61EB3B549CF92354989982613F016CE7AD5A4D09AA1F5126387AAD451EE384D9C035A925859E39C1AA865EE9A9B8DA21CEE289167F7CF1D4C4BC7A125EC5AED5D8BB0B5A9D9144D134CFA71BF85A8D44BE568348
310
F6AA55A2F3CAEACF6982FD29118CC249D3CBF852A586F278BA70FBD3853B90085793EDE51E143F0AD06C6B4CB2242BDDBDD1419166C2865E85F9CE1648F3CBF54B2E655D5432557AB8C599EEE6E763403914E55050D879E2BFFA30F366F009F0CB378371CA9B99D05949929DD07465EA8797A3808B6B06B9536E64AF9C844C
310
903AF2F3709D3783A318A078E4F37AEBBCEC2DD1B228B722F785DC2DB9D64C476675A63353CC74E937B1FA39BFA7DB58A6AFC19E49583A4A9B6110A6BA038D3C80418F79D091B18A763C1D8524AA5361F194EC4CC4B23EDBA3192533E95398E41423EB6DCA1C239B4DBF91D13F6D762A6897D7013D496371DC8BECCAA7D45E
310
0C251095ABC98AA38E1B6540CD3DACF829EF15C38D27C2B92DA64A071D13897001094F16523EC1C9E5A99FF465029665AB5B13C49AF8984D174EA40B273D389D33BB29A272F6749622C2719C22AC925104534E7A8CF33714555C6B3CF3BE4BE0AF28994CA9B8353E0F28878DD26D8D2F007FBAAD11BD305CEB4EAB35BE08B8
310
B8D678FEB81BD9134AB6ADF10A644BBEF9C2334A81E4EAA6772450D87DD2AF49C178F020A0EBD3055FF292CC5B8AB3FC4114C86BA708ACDB15F49C43C04EBBE7FCBD0CA8A1CB2AF59CC3897035E1E39713E16AD873FE91085A131FFF19C04DBEDBF8D75406FD3B3A2842E56C8ABE82A171BC3BF89ECB0E0F287926BC7B0450
310
75E4DDA3C09F2EEF56BE2579157071BCBBE7881BD93E255BDE7D04B225A07C61BD5230DE1DBA8C1158736B225E412358525F03747D78F79897E472BCCBAF5BAF2BA0DDE3804E9B765F2F035A65DA3D910857134A7A2311AE52DA8D6E0E9C1341735A873DD47F12A16BE2E99BE9C275792B70532835F1AEDB838B7404B509F7
310
74C449519D9AA19EB28205FF5B08785CE3F9307262735AC933693C270155C7C6730AF8E9359ED3808B6B3CA387DDC6734EC9B6F1C897238DE72006D89713F9C2E58B91C6F3388D608DE70CA0A7DA7866D30F8008DC16BEAA2D26A2AAB848F4108A0CF46D0F54D7A73989E2C56D75B6B8431D2F6EAB64C5CD94644C04869974
310
1626C5B6A280378D1BEE62BCE2C3917700E714386FAA719B1D7E7D464DF7DD444F8317374E8CAA75BEF65E19D0F8F0523EC21D7470DCC60B8CAEF29753FC38EF4760CFDBF99B4673F680D0869F6742513F06849341B61DF57EE3400A02734628D75C0DBC8B68A868B98655ECA330208EA3C6F1B52E3DF1E8849E2433679564
310
431A886148B568E62C4406F75F64308EFD2F9D7039EA6D259B5B2BF91AD8396F72B01004EFC5CD6C88F911E8CCDF849C077E5C64E9488747967101058B73015D99FA9B900B808B63FFB117DCC85E50324556799F2F34BC086EC70CD18A4318C0D9FF2AB6807CDB718046B0A4BE0FE8B4D9FFA207EA504E3D7E65FA014C7226
310
B329B0E8D703AAFEBAA304E869379E693123CD68457958A4FF2F11AE86ECFF6119D078F6E7138AD87FF2370F86D6E1E34789702D76FED2134932CCA824CB8C811832A3160D33426421BD940847AF6F0C11D33DEECB1CFE9B7175D1F926045DE5BD8DBFBDBE9C081764D0049324E6DDB40A8607F34A225C4D16463974B5B836
310
F3B3A32E193EACE499B49986C93A780A6DA631A981D7A6CD34012EAECDFCF23937B23F51B26D337F80CCDBCC36A5C0ECD07DE7E7A7236D663D8D6033A419D0536D33E07F56B8C4CA7C0D48229F9610695A461A0883CE7B494E8DD95B004DF38E8247AB09FE45AC1A52EDAC32A0861DD8DA85D8A76276989D08579353913989
310
700119397510D9BB4CAB9DF096393711B4263ECE4B176E7EBA700B3C389DB3F0B5335AA6A7234288EA142D784A9083AFB414616018456CF64C3293C4CD2F49D3E5A5F0410CEE3E0F2E6A6FEA11580893E29AEE529C2FC11C4DF48D4AA628982DB44A422820F8563073C8F989CF2240392BED74F7768B819FDEDE6E09E0E29A
310
EE0AFA030B3CB273954C91D5916E83CC9BEE074FAB1E6B73B11CFB6CBEB73B4C23589D2D05F4CC9AAE2E4C768646F0614DBB4BD40606BDCC4B726A4DF72640A7DD749797013521AB4ED3C5971C1BF2225712D922FD192CAA82F186C253F467B664EED8B163100EA1787299890C1D4314EEF90B040C236113FD72905624B8F0
310
99FF03A92412CEF64B0000
  0
DICTIONARY
  5
1012A
330
1003F
100
AcDbDictionary
280
     1
  3
ACAD_XREC_ROUNDTRIP
360
1012B
  0
DICTIONARY
  5
10128
330
1003E
100
AcDbDictionary
280
     1
  3
ACAD_XREC_ROUNDTRIP
360
10129
  0
DICTIONARY
  5
1012C
330
10040
100
AcDbDictionary
280
     1
  3
ACAD_XREC_ROUNDTRIP
360
1012D
  0
XRECORD
  5
1012B
102
{ACAD_REACTORS
330
1012A
102
}
330
1012A
100
AcDbXrecord
102
MATERIAL
148
0.0
149
0.0
149
0.0
 93
        0
 94
      127
282
     0
 72
     1
 77
     1
171
     1
175
     1
179
     1
273
     0
  0
XRECORD
  5
10129
102
{ACAD_REACTORS
330
10128
102
}
330
10128
100
AcDbXrecord
102
MATERIAL
148
0.0
149
0.0
149
0.0
 93
        0
 94
      127
282
     0
 72
     1
 77
     1
171
     1
175
     1
179
     1
273
     0
  0
XRECORD
  5
1012D
102
{ACAD_REACTORS
330
1012C
102
}
330
1012C
100
AcDbXrecord
102
MATERIAL
148
0.0
149
0.0
149
0.0
 93
        0
 94
      127
282
     0
 72
     1
 77
     1
171
     1
175
     1
179
     1
273
     0
  0
ENDSEC
  0
EOF
